<svg width="101" height="34" viewBox="0 0 101 34" fill="none" xmlns="http://www.w3.org/2000/svg">
<g clip-path="url(#clip0_135_30)">
<mask id="mask0_135_30" style="mask-type:luminance" maskUnits="userSpaceOnUse" x="0" y="0" width="101" height="34">
<path d="M100.5 0H0.5V34H100.5V0Z" fill="white"/>
</mask>
<g mask="url(#mask0_135_30)">
<path d="M69.8961 6.52393C70.1053 6.52293 70.3145 6.52191 70.5237 6.52083C70.9609 6.51901 71.3979 6.51841 71.8351 6.51861C72.3364 6.5188 72.8378 6.51556 73.3391 6.51071C73.8261 6.5062 74.313 6.50513 74.8001 6.50531C75.0051 6.50495 75.2101 6.50361 75.4152 6.50123C77.0396 6.48405 78.5294 6.62838 79.7545 8.12475C80.1001 8.58778 80.3567 9.05111 80.5457 9.64056C80.5756 9.7333 80.6058 9.82601 80.6368 9.92155C80.8512 10.9258 80.8946 11.9141 80.8941 12.95C80.8944 13.0886 80.8947 13.2273 80.8951 13.3659C80.8957 13.6548 80.8957 13.9436 80.8952 14.2325C80.8949 14.5251 80.8954 14.8177 80.8969 15.1104C80.9205 19.8383 80.9205 19.8383 79.6703 21.4962C78.9076 22.357 77.9239 22.834 76.9078 22.833C76.8525 22.8332 76.7972 22.8332 76.7403 22.8333C76.5557 22.8335 76.3711 22.8328 76.1865 22.8323C76.054 22.8323 75.9215 22.8323 75.7889 22.8323C75.4294 22.8325 75.0699 22.8318 74.7103 22.8312C74.3346 22.8305 73.9587 22.8303 73.5828 22.8303C72.8713 22.83 72.1597 22.8292 71.4482 22.8282C70.6381 22.827 69.8279 22.8263 69.0178 22.8258C67.3515 22.8248 65.685 22.823 64.0187 22.8208C64.0187 21.6407 64.0187 20.4605 64.0187 19.2447C64.6081 19.2442 64.6081 19.2442 65.2096 19.2435C66.5063 19.2417 67.8029 19.2372 69.0996 19.2312C69.886 19.2277 70.6723 19.2252 71.4587 19.2248C72.1441 19.2245 72.8294 19.2223 73.5148 19.2182C73.8778 19.216 74.2406 19.2147 74.6036 19.2155C74.9451 19.2163 75.2867 19.2147 75.6284 19.2112C75.7537 19.2103 75.8792 19.2103 76.0044 19.2113C76.1758 19.2125 76.3468 19.2107 76.5182 19.2078C76.614 19.2077 76.7098 19.2073 76.8085 19.207C77.1368 19.1235 77.2575 18.9537 77.4671 18.6317C77.6229 18.1268 77.6361 17.5502 77.6735 17.0137C77.6803 16.9143 77.6874 16.815 77.6946 16.7127C77.6996 16.6379 77.7048 16.5631 77.7101 16.4861C77.6585 16.4864 77.6068 16.4866 77.5537 16.4869C76.2931 16.4937 75.0324 16.4988 73.7719 16.502C73.1622 16.5035 72.5527 16.5057 71.943 16.5092C71.4111 16.5123 70.8795 16.5142 70.3477 16.5149C70.0664 16.5153 69.7853 16.5162 69.5041 16.5185C69.189 16.521 68.874 16.521 68.5589 16.5209C68.4673 16.522 68.3756 16.5231 68.2812 16.5242C66.9944 16.518 65.9205 16.0924 64.9909 14.9535C64.1835 13.7148 63.9138 12.4508 63.9996 10.8775C64.0453 10.3634 64.1783 9.90631 64.3428 9.43623C64.3642 9.36353 64.3859 9.29081 64.408 9.21591C64.755 8.16518 65.5023 7.52451 66.2808 7.0324C67.4468 6.45731 68.6654 6.5253 69.8961 6.52393ZM67.2694 10.7772C67.1333 11.2159 67.1322 11.6277 67.1783 12.0927C67.273 12.4067 67.273 12.4067 67.4214 12.6035C67.4748 12.6035 67.5282 12.6035 67.5833 12.6035C67.5833 12.671 67.5833 12.7384 67.5833 12.8079C67.824 12.9091 67.9798 12.9227 68.2307 12.9224C68.3143 12.9225 68.3977 12.9226 68.4838 12.9228C68.5755 12.9224 68.6669 12.922 68.7612 12.9217C68.8577 12.9217 68.9542 12.9217 69.0535 12.9217C69.318 12.9217 69.5823 12.9211 69.8468 12.9204C70.1232 12.9198 70.3996 12.9197 70.676 12.9196C71.1993 12.9193 71.7225 12.9184 72.246 12.9174C72.8416 12.9163 73.4374 12.9157 74.0333 12.9152C75.2589 12.9141 76.4845 12.9123 77.7101 12.9101C77.7127 12.6635 77.7147 12.4171 77.7162 12.1705C77.7173 12.0662 77.7173 12.0662 77.7185 11.9599C77.721 11.4338 77.6926 11.1034 77.4671 10.6623C77.1582 10.3013 76.9592 10.1392 76.5423 10.1364C76.4671 10.1357 76.392 10.1349 76.3145 10.1342C76.1904 10.1338 76.1904 10.1338 76.0637 10.1333C75.9768 10.1327 75.8899 10.132 75.8003 10.1313C75.5116 10.1293 75.2229 10.1281 74.9341 10.1271C74.8356 10.1267 74.7371 10.1262 74.6358 10.1258C74.1147 10.1237 73.5936 10.1222 73.0725 10.1213C72.5338 10.1201 71.9951 10.1166 71.4564 10.1126C71.0426 10.1099 70.6287 10.109 70.215 10.1087C70.0163 10.1082 69.8178 10.107 69.6192 10.1051C69.3413 10.1026 69.0634 10.1027 68.7855 10.1034C68.7034 10.1021 68.6214 10.1008 68.5368 10.0994C67.9619 10.1048 67.6587 10.2207 67.2694 10.7772Z" fill="white"/>
<path d="M88.5464 6.50075C88.6763 6.50067 88.8063 6.50045 88.9363 6.50012C89.2859 6.49958 89.6356 6.50097 89.9852 6.50273C90.3519 6.50428 90.7187 6.50415 91.0854 6.50423C91.7 6.5046 92.3144 6.50613 92.9289 6.50845C93.7186 6.51142 94.5082 6.51247 95.2979 6.51293C95.9772 6.51333 96.6564 6.51462 97.3356 6.51603C97.5541 6.51645 97.7725 6.51675 97.9909 6.51703C98.333 6.51753 98.675 6.51858 99.017 6.52005C99.1428 6.52052 99.2686 6.52082 99.3944 6.52092C99.5655 6.5211 99.7363 6.5219 99.9073 6.52288C100.051 6.52333 100.051 6.52333 100.198 6.5238C100.411 6.53727 100.411 6.53727 100.491 6.63972C100.498 6.94533 100.501 7.24858 100.5 7.55423C100.5 7.65018 100.5 7.74612 100.5 7.84498C100.5 8.16373 100.499 8.4825 100.498 8.80127C100.498 9.02163 100.498 9.242 100.498 9.46237C100.498 10.0436 100.497 10.6249 100.496 11.2062C100.495 11.7988 100.495 12.3914 100.495 12.9841C100.494 14.1478 100.492 15.3116 100.491 16.4753C98.7768 16.4801 97.0629 16.4837 95.349 16.4859C94.5532 16.487 93.7572 16.4884 92.9614 16.4908C92.2675 16.4928 91.5735 16.4941 90.8795 16.4946C90.5124 16.4949 90.1452 16.4955 89.778 16.497C89.4318 16.4984 89.0856 16.4988 88.7393 16.4985C88.6129 16.4985 88.4864 16.4989 88.3599 16.4997C86.9805 16.5079 85.6834 16.3244 84.6395 15.0414C84.1608 14.3356 83.8648 13.5919 83.7008 12.6845C83.6862 12.6194 83.6717 12.5543 83.6567 12.4872C83.4671 11.3661 83.6509 10.0073 84.0668 8.99697C84.201 8.74212 84.3428 8.51082 84.5003 8.27898C84.5402 8.21427 84.5802 8.14955 84.6214 8.08288C85.5948 6.65295 87.1693 6.48953 88.5464 6.50075ZM86.8789 10.6931C86.6447 11.1108 86.6058 11.4595 86.6589 11.9673C86.8418 12.4275 87.0217 12.6592 87.3785 12.8894C87.5859 12.9341 87.5859 12.9341 87.806 12.9264C87.933 12.927 87.933 12.927 88.0624 12.9277C88.1546 12.9266 88.2465 12.9254 88.3413 12.9243C88.4876 12.9244 88.4876 12.9244 88.6368 12.9244C88.9036 12.9243 89.1703 12.9227 89.4372 12.9206C89.7162 12.9187 89.9953 12.9185 90.2742 12.9181C90.8023 12.9172 91.3304 12.9146 91.8584 12.9116C92.4598 12.9081 93.0611 12.9064 93.6624 12.9049C94.8991 12.9017 96.1358 12.896 97.3725 12.8894C97.3725 11.9765 97.3725 11.0637 97.3725 10.1232C96.0869 10.1162 94.8011 10.1106 93.5154 10.1072C92.9184 10.1056 92.3214 10.1035 91.7244 10.1C91.204 10.0969 90.6837 10.0949 90.1633 10.0942C89.8877 10.0938 89.6124 10.0929 89.3368 10.0907C89.0291 10.0882 88.7216 10.0881 88.4139 10.0883C88.3227 10.0872 88.2315 10.086 88.1373 10.0849C88.0534 10.0853 87.9695 10.0858 87.8829 10.0862C87.7738 10.0858 87.7738 10.0858 87.6624 10.0853C87.3129 10.1501 87.1078 10.3588 86.8789 10.6931Z" fill="white"/>
<path d="M24.0571 6.50075C24.1871 6.50067 24.3171 6.50045 24.4471 6.50012C24.7966 6.49958 25.1464 6.50097 25.496 6.50273C25.8626 6.50428 26.2295 6.50415 26.5961 6.50423C27.2107 6.5046 27.8251 6.50613 28.4397 6.50845C29.2293 6.51142 30.0189 6.51247 30.8087 6.51293C31.4879 6.51333 32.1672 6.51462 32.8464 6.51603C33.0648 6.51645 33.2832 6.51675 33.5017 6.51703C33.8437 6.51753 34.1858 6.51858 34.5278 6.52005C34.6536 6.52052 34.7794 6.52082 34.9052 6.52092C35.0762 6.5211 35.2471 6.5219 35.4181 6.52288C35.5618 6.52333 35.5618 6.52333 35.7085 6.5238C35.9214 6.53727 35.9214 6.53727 36.0015 6.63972C36.009 6.94533 36.0115 7.24858 36.0105 7.55423C36.0105 7.65018 36.0105 7.74612 36.0105 7.84498C36.0105 8.16373 36.0099 8.4825 36.0092 8.80127C36.009 9.02163 36.009 9.242 36.0089 9.46237C36.0085 10.0436 36.0079 10.6249 36.0069 11.2062C36.0062 11.7988 36.0057 12.3914 36.0053 12.9841C36.0045 14.1478 36.0032 15.3116 36.0015 16.4753C34.2876 16.4801 32.5737 16.4837 30.8598 16.4859C30.064 16.487 29.268 16.4884 28.4722 16.4908C27.7782 16.4928 27.0842 16.4941 26.3903 16.4946C26.0231 16.4949 25.6559 16.4955 25.2888 16.497C24.9425 16.4984 24.5963 16.4988 24.2501 16.4985C24.1236 16.4985 23.9971 16.4989 23.8707 16.4997C22.4913 16.5079 21.1941 16.3244 20.1502 15.0414C19.6715 14.3356 19.3755 13.5919 19.2115 12.6845C19.197 12.6194 19.1824 12.5543 19.1675 12.4872C18.9779 11.3661 19.1616 10.0073 19.5775 8.99697C19.7117 8.74212 19.8536 8.51082 20.011 8.27898C20.0509 8.21427 20.0909 8.14955 20.1321 8.08288C21.1055 6.65295 22.6801 6.48953 24.0571 6.50075ZM22.3896 10.6931C22.1554 11.1108 22.1166 11.4595 22.1697 11.9673C22.3526 12.4275 22.5325 12.6592 22.8893 12.8894C23.0966 12.9341 23.0966 12.9341 23.3167 12.9264C23.4437 12.927 23.4437 12.927 23.5732 12.9277C23.6653 12.9266 23.7573 12.9254 23.8521 12.9243C23.9983 12.9244 23.9983 12.9244 24.1476 12.9244C24.4144 12.9243 24.6811 12.9227 24.9479 12.9206C25.227 12.9187 25.506 12.9185 25.7849 12.9181C26.3131 12.9172 26.8412 12.9146 27.3692 12.9116C27.9705 12.9081 28.5718 12.9064 29.1732 12.9049C30.4099 12.9017 31.6466 12.896 32.8832 12.8894C32.8832 11.9765 32.8832 11.0637 32.8832 10.1232C31.5976 10.1162 30.3119 10.1106 29.0261 10.1072C28.4291 10.1056 27.8321 10.1035 27.2352 10.1C26.7147 10.0969 26.1945 10.0949 25.674 10.0942C25.3985 10.0938 25.1231 10.0929 24.8476 10.0907C24.5399 10.0882 24.2323 10.0881 23.9246 10.0883C23.8335 10.0872 23.7422 10.086 23.6481 10.0849C23.5641 10.0853 23.4802 10.0858 23.3936 10.0862C23.2846 10.0858 23.2846 10.0858 23.1732 10.0853C22.8236 10.1501 22.6186 10.3588 22.3896 10.6931Z" fill="white"/>
<path d="M49.5417 6.50013C49.6703 6.50016 49.7989 6.50015 49.9274 6.50008C50.2747 6.50005 50.6219 6.50065 50.9691 6.50138C51.3328 6.50201 51.6963 6.50208 52.0599 6.5022C52.7475 6.50251 53.4353 6.50335 54.1229 6.50438C55.0527 6.50575 55.9825 6.5063 56.9123 6.5069C58.376 6.50786 59.8398 6.50991 61.3036 6.51178C61.3036 9.79563 61.3036 13.0795 61.3036 16.4629C57.9979 16.4753 57.9979 16.4753 56.6085 16.4779C55.6505 16.4797 54.6926 16.4819 53.7348 16.4861C53.037 16.4892 52.3393 16.4911 51.6415 16.4918C51.2725 16.4922 50.9033 16.4932 50.5343 16.4954C50.186 16.4975 49.8378 16.4981 49.4897 16.4977C49.3626 16.4978 49.2356 16.4984 49.1087 16.4996C47.7438 16.5117 46.4748 16.2734 45.4378 15.0443C44.5482 13.7578 44.3266 12.4749 44.3983 10.8205C44.4683 9.63918 44.9587 8.54363 45.6331 7.74325C46.8207 6.60308 48.1118 6.4956 49.5417 6.50013ZM47.7926 10.4747C47.5591 10.8484 47.4187 11.1138 47.4472 11.6027C47.5123 12.0283 47.6371 12.3347 47.8597 12.6671C48.1118 12.8703 48.307 12.8977 48.6026 12.8969C48.6877 12.8972 48.7728 12.8975 48.8604 12.8978C48.9999 12.8967 48.9999 12.8967 49.1422 12.8956C49.2403 12.8956 49.3385 12.8956 49.4396 12.8957C49.7087 12.8955 49.9775 12.8945 50.2463 12.8931C50.5276 12.8918 50.8088 12.8917 51.0899 12.8914C51.6222 12.8908 52.1546 12.8891 52.6867 12.887C53.2927 12.8848 53.8989 12.8836 54.505 12.8826C55.7515 12.8804 56.9979 12.8767 58.2445 12.8723C58.2445 11.9582 58.2445 11.0441 58.2445 10.1024C56.9604 10.0977 55.6763 10.094 54.3924 10.0917C53.7961 10.0907 53.1999 10.0892 52.6036 10.0869C52.084 10.0848 51.5643 10.0835 51.0445 10.0831C50.7695 10.0828 50.4942 10.0822 50.2192 10.0807C49.9118 10.0792 49.6046 10.079 49.2974 10.0791C49.2063 10.0783 49.1152 10.0776 49.0212 10.0768C48.8954 10.0773 48.8954 10.0773 48.7671 10.0777C48.6581 10.0774 48.6581 10.0774 48.547 10.0771C48.2468 10.1142 48.0185 10.2192 47.7926 10.4747Z" fill="white"/>
<path d="M0.5 6.5C1.51255 6.5 2.52509 6.5 3.56832 6.5C3.66904 7.14043 3.7558 7.72748 3.79007 8.37003C3.79946 8.52487 3.80888 8.6797 3.81829 8.83453C3.83221 9.07262 3.84588 9.3107 3.85916 9.54883C3.88077 11.1724 3.88077 11.1724 4.37611 12.5706C4.70668 12.8348 4.96389 12.8218 5.34678 12.8171C5.45576 12.8182 5.45576 12.8182 5.56695 12.8193C5.80663 12.8211 6.04625 12.8199 6.28593 12.8185C6.45275 12.8188 6.61956 12.8192 6.78638 12.8197C7.13581 12.8203 7.48521 12.8194 7.83464 12.8175C8.28239 12.8152 8.73008 12.8165 9.17784 12.819C9.52224 12.8205 9.86665 12.82 10.2111 12.8189C10.3761 12.8186 10.5412 12.819 10.7063 12.8199C10.9371 12.821 11.1678 12.8194 11.3986 12.8171C11.5008 12.8184 11.5008 12.8184 11.6051 12.8196C11.93 12.8137 12.089 12.7952 12.3694 12.5671C12.9625 11.7825 12.8746 10.2219 12.9449 9.19555C12.9653 8.90845 12.9859 8.62138 13.0066 8.33433C13.0194 8.15675 13.0319 7.97915 13.0441 7.8015C13.0498 7.72057 13.0555 7.63963 13.0613 7.55627C13.0662 7.48593 13.071 7.4156 13.076 7.34315C13.1013 7.06068 13.1403 6.78043 13.1771 6.5C14.1896 6.5 15.2022 6.5 16.2454 6.5C16.2454 7.23648 16.2446 7.93065 16.1832 8.65563C16.1767 8.7371 16.1701 8.81855 16.1633 8.90248C16.1493 9.07283 16.1351 9.24313 16.1207 9.41342C16.0991 9.66922 16.0788 9.92513 16.0585 10.1811C15.902 12.0997 15.6961 14.1216 14.4463 15.4198C13.5689 16.2515 12.5662 16.4929 11.4875 16.4889C11.374 16.4897 11.374 16.4897 11.2583 16.4905C11.0109 16.4919 10.7634 16.4918 10.5159 16.4916C10.3422 16.492 10.1684 16.4924 9.99469 16.4929C9.63139 16.4937 9.26809 16.4937 8.90477 16.4931C8.44164 16.4925 7.97851 16.4943 7.51538 16.4967C7.15673 16.4982 6.79811 16.4983 6.43948 16.4979C6.26883 16.498 6.09819 16.4985 5.92755 16.4996C4.44151 16.5075 3.19625 16.4241 2.06602 15.0728C1.1811 13.9052 0.946655 12.6136 0.807842 11.0439C0.794536 10.9018 0.781132 10.7597 0.767628 10.6175C0.742866 10.3564 0.718777 10.0952 0.695181 9.83383C0.67225 9.5916 0.646584 9.34975 0.618516 9.10838C0.585354 8.80173 0.565261 8.50373 0.555197 8.19475C0.55212 8.10482 0.549043 8.01487 0.545873 7.92222C0.542392 7.81082 0.538912 7.69942 0.535326 7.58463C0.523669 7.2267 0.512011 6.86878 0.5 6.5Z" fill="white"/>
<path d="M38.6914 0C39.6864 0 40.6814 0 41.7065 0C41.7065 5.445 41.7065 10.89 41.7065 16.5C40.7115 16.5 39.7165 16.5 38.6914 16.5C38.6914 11.055 38.6914 5.61 38.6914 0Z" fill="white"/>
<path d="M31.0312 31.4786H33.5104V32.0663H31.0312V31.4786ZM31.0999 34.0001H30.4131V29.2168H33.8057V29.8113H31.0999V34.0001ZM36.7642 34.0548C36.1323 34.0548 35.6355 33.8748 35.2739 33.515C34.9121 33.1551 34.7313 32.629 34.7313 31.9365V29.2168H35.4181V31.9091C35.4181 32.4421 35.5349 32.8316 35.7684 33.0776C36.0064 33.3236 36.3406 33.4466 36.771 33.4466C37.2059 33.4466 37.5402 33.3236 37.7737 33.0776C38.0117 32.8316 38.1308 32.4421 38.1308 31.9091V29.2168H38.797V31.9365C38.797 32.629 38.6161 33.1551 38.2545 33.515C37.8973 33.8748 37.4005 34.0548 36.7642 34.0548ZM40.2049 34.0001V29.2168H42.0798C42.501 29.2168 42.8605 29.2828 43.158 29.415C43.4556 29.5471 43.6846 29.7385 43.8447 29.989C44.005 30.2395 44.0851 30.538 44.0851 30.8841C44.0851 31.2303 44.005 31.5288 43.8447 31.7793C43.6846 32.0253 43.4556 32.2143 43.158 32.3465C42.8605 32.4786 42.501 32.5446 42.0798 32.5446H40.5826L40.8916 32.2303V34.0001H40.2049ZM43.4189 34.0001L42.1965 32.2645H42.9313L44.1675 34.0001H43.4189ZM40.8916 32.2986L40.5826 31.9638H42.0591C42.4987 31.9638 42.8307 31.8705 43.055 31.6836C43.2839 31.4923 43.3983 31.2258 43.3983 30.8841C43.3983 30.5425 43.2839 30.2783 43.055 30.0915C42.8307 29.9046 42.4987 29.8113 42.0591 29.8113H40.5826L40.8916 29.4696V32.2986ZM45.1947 34.0001V29.2168H45.7578L48.9375 33.146H48.6422V29.2168H49.329V34.0001H48.7658L45.5861 30.071H45.8814V34.0001H45.1947ZM50.768 34.0001V29.2168H51.4548V34.0001H50.768ZM53.8486 34.0001V29.8113H52.2004V29.2168H56.1767V29.8113H54.5285V34.0001H53.8486ZM58.8292 34.0548C58.1973 34.0548 57.7007 33.8748 57.3389 33.515C56.9772 33.1551 56.7963 32.629 56.7963 31.9365V29.2168H57.4831V31.9091C57.4831 32.4421 57.5998 32.8316 57.8334 33.0776C58.0715 33.3236 58.4057 33.4466 58.836 33.4466C59.271 33.4466 59.6052 33.3236 59.8387 33.0776C60.0769 32.8316 60.1958 32.4421 60.1958 31.9091V29.2168H60.862V31.9365C60.862 32.629 60.6813 33.1551 60.3194 33.515C59.9623 33.8748 59.4657 34.0548 58.8292 34.0548ZM62.27 34.0001V29.2168H64.1449C64.5662 29.2168 64.9255 29.2828 65.2231 29.415C65.5208 29.5471 65.7496 29.7385 65.9099 29.989C66.0702 30.2395 66.1503 30.538 66.1503 30.8841C66.1503 31.2303 66.0702 31.5288 65.9099 31.7793C65.7496 32.0253 65.5208 32.2143 65.2231 32.3465C64.9255 32.4786 64.5662 32.5446 64.1449 32.5446H62.6478L62.9568 32.2303V34.0001H62.27ZM65.4841 34.0001L64.2617 32.2645H64.9965L66.2327 34.0001H65.4841ZM62.9568 32.2986L62.6478 31.9638H64.1243C64.5638 31.9638 64.8958 31.8705 65.1201 31.6836C65.3491 31.4923 65.4635 31.2258 65.4635 30.8841C65.4635 30.5425 65.3491 30.2783 65.1201 30.0915C64.8958 29.9046 64.5638 29.8113 64.1243 29.8113H62.6478L62.9568 29.4696V32.2986ZM67.8848 31.2805H70.3571V31.8613H67.8848V31.2805ZM67.9466 33.4056H70.7486V34.0001H67.2598V29.2168H70.6524V29.8113H67.9466V33.4056Z" fill="white"/>
</g>
</g>
<defs>
<clipPath id="clip0_135_30">
<rect width="100" height="34" fill="white" transform="translate(0.5)"/>
</clipPath>
</defs>
</svg>
