<svg width="204" height="19" viewBox="0 0 204 19" fill="none" xmlns="http://www.w3.org/2000/svg">
<g filter="url(#filter0_i_317_18)">
<path d="M105.34 0C106.355 0 107.352 0.117188 108.328 0.351562C109.324 0.585938 110.271 0.9375 111.17 1.40625C112.068 1.85547 112.859 2.46094 113.543 3.22266C114.246 3.98438 114.627 4.89258 114.686 5.94727V7.17773V16.5234C114.568 17.6953 113.924 18.3301 112.752 18.4277C112.205 18.4277 111.727 18.252 111.316 17.9004C110.926 17.5293 110.73 17.0703 110.73 16.5234V6.85547C110.691 6.25 110.457 5.75195 110.027 5.36133C109.617 4.95117 109.148 4.62891 108.621 4.39453C108.113 4.16016 107.576 3.98438 107.01 3.86719C106.463 3.75 105.906 3.69141 105.34 3.69141C104.773 3.69141 104.207 3.75 103.641 3.86719C103.094 3.98438 102.557 4.16016 102.029 4.39453C101.521 4.62891 101.053 4.95117 100.623 5.36133C100.213 5.75195 99.9883 6.25 99.9492 6.85547V16.5234C99.8516 17.6953 99.2168 18.3301 98.0449 18.4277C97.498 18.4277 97.0195 18.252 96.6094 17.9004C96.2188 17.5293 96.0234 17.0703 96.0234 16.5234V7.17773V5.94727C96.082 4.89258 96.4531 3.98438 97.1367 3.22266C97.8203 2.46094 98.6113 1.85547 99.5098 1.40625C100.408 0.9375 101.346 0.585938 102.322 0.351562C103.318 0.117188 104.324 0 105.34 0Z" fill="white"/>
</g>
<g filter="url(#filter1_i_317_18)">
<path d="M79.8516 0.791016H81.1992H91.1602C91.707 0.810547 92.1562 1.01562 92.5078 1.40625C92.8789 1.79688 93.0645 2.26562 93.0645 2.8125C92.9668 3.98438 92.332 4.61914 91.1602 4.7168H80.8477C80.1055 4.75586 79.4902 5.03906 79.002 5.56641C78.5137 6.09375 78.1523 6.69922 77.918 7.38281C77.7031 8.04688 77.5957 8.73047 77.5957 9.43359C77.5957 10.1367 77.7031 10.8301 77.918 11.5137C78.1523 12.1777 78.5137 12.7734 79.002 13.3008C79.4902 13.8281 80.1055 14.1113 80.8477 14.1504H91.1602C91.707 14.1699 92.1562 14.375 92.5078 14.7656C92.8789 15.1562 93.0645 15.625 93.0645 16.1719C93.0449 16.6992 92.8496 17.1484 92.4785 17.5195C92.127 17.8711 91.6875 18.0566 91.1602 18.0762H80.4082H79.8516C78.4844 17.998 77.3516 17.4805 76.4531 16.5234C75.5742 15.5469 74.9395 14.4434 74.5488 13.2129C74.1777 11.9824 73.9922 10.7227 73.9922 9.43359C73.9922 8.14453 74.1875 6.88477 74.5781 5.6543C74.9688 4.42383 75.6035 3.33008 76.4824 2.37305C77.3613 1.39648 78.4844 0.869141 79.8516 0.791016ZM93.0059 9.31641C93.0059 9.86328 92.8105 10.3223 92.4199 10.6934C92.0488 11.084 91.5898 11.2793 91.043 11.2793H82.1953C81.6484 11.2793 81.1797 11.0938 80.7891 10.7227C80.418 10.332 80.2324 9.86328 80.2324 9.31641C80.2324 8.76953 80.418 8.30078 80.7891 7.91016C81.1797 7.53906 81.6484 7.35352 82.1953 7.35352H91.043C91.5898 7.35352 92.0488 7.54883 92.4199 7.93945C92.8105 8.31055 93.0059 8.76953 93.0059 9.31641Z" fill="white"/>
</g>
<g filter="url(#filter2_i_317_18)">
<path d="M57.8496 9.02344C57.3223 8.02734 56.6582 7.08008 55.8574 6.18164C55.0566 5.2832 54.2852 4.79492 53.543 4.7168H51.082C50.5352 4.7168 50.0762 4.52148 49.7051 4.13086C49.3145 3.75977 49.1191 3.30078 49.1191 2.75391C49.1191 2.20703 49.3047 1.74805 49.6758 1.37695C50.0664 0.986328 50.5352 0.791016 51.082 0.791016H53.543V0.820312H53.8359C55.2422 0.898438 56.6973 1.68945 58.2012 3.19336C58.9434 3.95508 59.627 4.81445 60.252 5.77148C60.877 4.81445 61.5703 3.95508 62.332 3.19336C63.8164 1.68945 65.2617 0.898438 66.668 0.820312H66.9609V0.791016H69.4219C69.9688 0.791016 70.4277 0.986328 70.7988 1.37695C71.1895 1.74805 71.3848 2.20703 71.3848 2.75391C71.3848 3.30078 71.1895 3.75977 70.7988 4.13086C70.4277 4.52148 69.9688 4.7168 69.4219 4.7168H66.9609C66.2188 4.79492 65.4473 5.2832 64.6465 6.18164C63.8457 7.08008 63.1816 8.02734 62.6543 9.02344C62.5371 9.23828 62.4199 9.44336 62.3027 9.63867C62.3418 9.69727 62.3809 9.75586 62.4199 9.81445C62.9473 10.8301 63.6113 11.7871 64.4121 12.6855C65.2129 13.584 65.9844 14.0625 66.7266 14.1211H69.1875C69.7344 14.1211 70.1934 14.3164 70.5645 14.707C70.9551 15.0781 71.1504 15.5371 71.1504 16.084C71.1504 16.6309 70.9551 17.0996 70.5645 17.4902C70.1934 17.8613 69.7344 18.0469 69.1875 18.0469H66.4336C65.0273 17.9688 63.582 17.1875 62.0977 15.7031C61.4336 15.0195 60.8184 14.2773 60.252 13.4766C59.6855 14.2773 59.0703 15.0195 58.4062 15.7031C56.9219 17.1875 55.4766 17.9688 54.0703 18.0469H51.3164C50.7695 18.0469 50.3008 17.8613 49.9102 17.4902C49.5391 17.0996 49.3535 16.6309 49.3535 16.084C49.3535 15.5371 49.5488 15.0781 49.9395 14.707C50.3105 14.3164 50.7695 14.1211 51.3164 14.1211H53.7773C54.5195 14.0625 55.291 13.584 56.0918 12.6855C56.8926 11.7871 57.5566 10.8301 58.084 9.81445C58.123 9.75586 58.1621 9.69727 58.2012 9.63867C58.084 9.44336 57.9668 9.23828 57.8496 9.02344Z" fill="white"/>
</g>
<g filter="url(#filter3_i_317_18)">
<path d="M40.5645 0.791016C41.5605 0.810547 42.4492 1.12305 43.2305 1.72852C44.0117 2.33398 44.6367 3.05664 45.1055 3.89648C45.5938 4.73633 45.9551 5.625 46.1895 6.5625C46.4238 7.5 46.541 8.45703 46.541 9.43359C46.541 10.7227 46.3359 11.9922 45.9258 13.2422C45.5352 14.4727 44.8809 15.5664 43.9629 16.5234C43.0645 17.4805 41.9316 17.998 40.5645 18.0762H30.3398C28.9727 18.0176 27.8301 17.5098 26.9121 16.5527C25.9941 15.5957 25.3398 14.4922 24.9492 13.2422C24.5781 11.9922 24.3926 10.7227 24.3926 9.43359C24.3926 8.14453 24.5879 6.88477 24.9785 5.6543C25.3691 4.4043 26.0137 3.30078 26.9121 2.34375C27.8301 1.36719 28.9727 0.849609 30.3398 0.791016H30.8965H40.0078H40.5645ZM39.5684 14.1504C40.3105 14.1113 40.9258 13.8379 41.4141 13.3301C41.9219 12.8027 42.2832 12.1973 42.498 11.5137C42.7129 10.8301 42.8203 10.1367 42.8203 9.43359C42.8203 8.73047 42.7031 8.04688 42.4688 7.38281C42.2539 6.69922 41.9023 6.09375 41.4141 5.56641C40.9258 5.03906 40.3105 4.75586 39.5684 4.7168H31.248C30.5059 4.75586 29.8906 5.03906 29.4023 5.56641C28.9141 6.09375 28.5527 6.69922 28.3184 7.38281C28.1035 8.04688 27.9961 8.73047 27.9961 9.43359C27.9961 10.1367 28.1035 10.8301 28.3184 11.5137C28.5332 12.1973 28.8848 12.8027 29.373 13.3301C29.8809 13.8379 30.5059 14.1113 31.248 14.1504H39.5684Z" fill="white"/>
</g>
<g filter="url(#filter4_i_317_18)">
<path d="M4.93945 16.582C4.82227 17.7539 4.17773 18.3887 3.00586 18.4863C2.45898 18.4863 1.98047 18.3105 1.57031 17.959C1.17969 17.5879 0.984375 17.1289 0.984375 16.582V2.69531C1.00391 2.14844 1.20898 1.69922 1.59961 1.34766C1.99023 0.976562 2.45898 0.791016 3.00586 0.791016H4.44141H8.04492H15.2812C15.3984 0.791016 15.5156 0.800781 15.6328 0.820312H15.8086C17.1758 0.859375 18.2988 1.17188 19.1777 1.75781C20.0566 2.34375 20.6914 3.01758 21.082 3.7793C21.4727 4.52148 21.668 5.27344 21.668 6.03516C21.668 6.81641 21.4727 7.58789 21.082 8.34961C20.7109 9.0918 20.0762 9.75586 19.1777 10.3418C18.2988 10.9277 17.1758 11.2402 15.8086 11.2793H10.6523C10.8086 12.2559 11.1309 12.9785 11.6191 13.4473C12.0879 13.916 12.6836 14.1504 13.4062 14.1504H19.7344C20.2812 14.1699 20.7305 14.375 21.082 14.7656C21.4531 15.1562 21.6387 15.625 21.6387 16.1719C21.6191 16.6992 21.4238 17.1484 21.0527 17.5195C20.7012 17.8711 20.2617 18.0566 19.7344 18.0762H12.8789C11.4336 18.0957 10.125 17.5293 8.95312 16.377C7.78125 15.2246 7.06836 13.8574 6.81445 12.2754C6.46289 10.5176 6.28711 9.53125 6.28711 9.31641C6.28711 8.76953 6.47266 8.31055 6.84375 7.93945C7.23438 7.54883 7.70312 7.35352 8.25 7.35352H15.9844C16.3555 7.33398 16.6582 7.25586 16.8926 7.11914C17.1465 6.96289 17.332 6.79688 17.4492 6.62109C17.5664 6.42578 17.625 6.23047 17.625 6.03516C17.625 5.83984 17.5664 5.6543 17.4492 5.47852C17.332 5.2832 17.1465 5.11719 16.8926 4.98047C16.6582 4.82422 16.3555 4.73633 15.9844 4.7168H8.04492H5.70117C5.19336 4.73633 4.93945 4.99023 4.93945 5.47852V16.582Z" fill="white"/>
</g>
<g filter="url(#filter5_i_317_18)">
<path d="M181.836 3.27637C181.836 2.80241 181.997 2.40462 182.318 2.08301C182.657 1.74447 183.063 1.5752 183.537 1.5752H198.314C198.788 1.5752 199.195 1.736 199.533 2.05762C199.855 2.39616 200.016 2.80241 200.016 3.27637C200.016 3.75033 199.846 4.15658 199.508 4.49512C199.186 4.81673 198.788 4.97754 198.314 4.97754H192.652V15.2607C192.551 16.2764 191.992 16.8265 190.977 16.9111C190.503 16.9111 190.088 16.7588 189.732 16.4541C189.394 16.1325 189.225 15.7347 189.225 15.2607V4.97754H183.537C183.063 4.97754 182.665 4.80827 182.344 4.46973C182.005 4.14811 181.836 3.75033 181.836 3.27637Z" fill="#A59B9B"/>
</g>
<g filter="url(#filter6_i_317_18)">
<path d="M165.078 16.8604C164.621 16.8434 164.232 16.6826 163.91 16.3779C163.589 16.0563 163.419 15.667 163.402 15.21V8.8877C163.419 7.68587 163.589 6.55176 163.91 5.48535C164.249 4.41895 164.799 3.52181 165.561 2.79395C166.339 2.04915 167.321 1.6429 168.506 1.5752H178.307C178.764 1.59212 179.145 1.76139 179.449 2.08301C179.771 2.3877 179.94 2.76855 179.957 3.22559C179.957 3.69954 179.796 4.10579 179.475 4.44434C179.17 4.78288 178.781 4.96061 178.307 4.97754H169.369C168.726 5.01139 168.193 5.25684 167.77 5.71387C167.346 6.1709 167.076 6.69564 166.957 7.28809C166.855 7.86361 166.813 8.49837 166.83 9.19238V15.21C166.813 15.6839 166.635 16.0817 166.297 16.4033C165.958 16.708 165.552 16.8604 165.078 16.8604ZM168.023 10.1826C168.023 9.70866 168.193 9.31087 168.531 8.98926C168.853 8.65072 169.251 8.48145 169.725 8.48145H178.307C178.781 8.48145 179.178 8.65072 179.5 8.98926C179.839 9.31087 180.008 9.70866 180.008 10.1826C180.008 10.6566 179.847 11.0628 179.525 11.4014C179.187 11.723 178.781 11.8838 178.307 11.8838H169.725C169.251 11.8838 168.844 11.723 168.506 11.4014C168.184 11.0628 168.023 10.6566 168.023 10.1826Z" fill="#A59B9B"/>
</g>
<g filter="url(#filter7_i_317_18)">
<path d="M155.379 1.5752C156.242 1.59212 157.012 1.86296 157.689 2.3877C158.367 2.91243 158.908 3.53874 159.314 4.2666C159.738 4.99447 160.051 5.76465 160.254 6.57715C160.457 7.38965 160.559 8.21908 160.559 9.06543C160.559 10.1826 160.381 11.2829 160.025 12.3662C159.687 13.4326 159.12 14.3805 158.324 15.21C157.546 16.0394 156.564 16.488 155.379 16.5557H146.518C145.333 16.5049 144.342 16.0648 143.547 15.2354C142.751 14.4059 142.184 13.4495 141.846 12.3662C141.524 11.2829 141.363 10.1826 141.363 9.06543C141.363 7.94824 141.533 6.85645 141.871 5.79004C142.21 4.70671 142.768 3.75033 143.547 2.9209C144.342 2.07454 145.333 1.62598 146.518 1.5752H147H154.896H155.379ZM154.516 13.1533C155.159 13.1195 155.692 12.8825 156.115 12.4424C156.555 11.9854 156.868 11.4606 157.055 10.8682C157.241 10.2757 157.334 9.6748 157.334 9.06543C157.334 8.45605 157.232 7.86361 157.029 7.28809C156.843 6.69564 156.538 6.1709 156.115 5.71387C155.692 5.25684 155.159 5.01139 154.516 4.97754H147.305C146.661 5.01139 146.128 5.25684 145.705 5.71387C145.282 6.1709 144.969 6.69564 144.766 7.28809C144.579 7.86361 144.486 8.45605 144.486 9.06543C144.486 9.6748 144.579 10.2757 144.766 10.8682C144.952 11.4606 145.257 11.9854 145.68 12.4424C146.12 12.8825 146.661 13.1195 147.305 13.1533H154.516Z" fill="#A59B9B"/>
</g>
<g filter="url(#filter8_i_317_18)">
<path d="M138.469 3.27637C138.469 3.75033 138.299 4.14811 137.961 4.46973C137.639 4.80827 137.242 4.97754 136.768 4.97754H126.611C126.29 4.99447 126.019 5.07064 125.799 5.20605C125.596 5.32454 125.443 5.46842 125.342 5.6377C125.24 5.79004 125.189 5.95085 125.189 6.12012C125.189 6.28939 125.24 6.45866 125.342 6.62793C125.443 6.78027 125.596 6.92415 125.799 7.05957C126.019 7.17806 126.29 7.24577 126.611 7.2627H133.822C135.007 7.29655 135.98 7.57585 136.742 8.10059C137.521 8.6084 138.071 9.20085 138.393 9.87793C138.731 10.5381 138.9 11.2152 138.9 11.9092C138.9 12.5863 138.731 13.2633 138.393 13.9404C138.054 14.6006 137.504 15.193 136.742 15.7178C135.98 16.2256 135.007 16.4795 133.822 16.4795H133.67C133.568 16.4964 133.467 16.5049 133.365 16.5049H123.768C123.294 16.5049 122.887 16.3441 122.549 16.0225C122.227 15.6839 122.066 15.2777 122.066 14.8037C122.066 14.3298 122.236 13.932 122.574 13.6104C122.896 13.2718 123.294 13.1025 123.768 13.1025H133.975C134.296 13.1195 134.559 13.0602 134.762 12.9248C134.982 12.7894 135.143 12.637 135.244 12.4678C135.346 12.2816 135.396 12.0954 135.396 11.9092C135.396 11.7907 135.346 11.6299 135.244 11.4268C135.143 11.2067 134.982 11.029 134.762 10.8936C134.559 10.7581 134.296 10.682 133.975 10.665H126.764C125.579 10.6312 124.597 10.3604 123.818 9.85254C123.057 9.34473 122.507 8.76921 122.168 8.12598C121.846 7.46582 121.686 6.7972 121.686 6.12012C121.686 5.45996 121.855 4.80827 122.193 4.16504C122.532 3.50488 123.082 2.9209 123.844 2.41309C124.605 1.90527 125.579 1.63444 126.764 1.60059H126.916C127.018 1.58366 127.119 1.5752 127.221 1.5752H136.768C137.242 1.5752 137.639 1.74447 137.961 2.08301C138.299 2.40462 138.469 2.80241 138.469 3.27637Z" fill="#A59B9B"/>
</g>
<defs>
<filter id="filter0_i_317_18" x="96.0234" y="0" width="18.6621" height="19.4277" filterUnits="userSpaceOnUse" color-interpolation-filters="sRGB">
<feFlood flood-opacity="0" result="BackgroundImageFix"/>
<feBlend mode="normal" in="SourceGraphic" in2="BackgroundImageFix" result="shape"/>
<feColorMatrix in="SourceAlpha" type="matrix" values="0 0 0 0 0 0 0 0 0 0 0 0 0 0 0 0 0 0 127 0" result="hardAlpha"/>
<feOffset dy="2"/>
<feGaussianBlur stdDeviation="0.5"/>
<feComposite in2="hardAlpha" operator="arithmetic" k2="-1" k3="1"/>
<feColorMatrix type="matrix" values="0 0 0 0 0 0 0 0 0 0 0 0 0 0 0 0 0 0 0.4 0"/>
<feBlend mode="normal" in2="shape" result="effect1_innerShadow_317_18"/>
</filter>
<filter id="filter1_i_317_18" x="73.9922" y="0.791016" width="19.0723" height="18.2852" filterUnits="userSpaceOnUse" color-interpolation-filters="sRGB">
<feFlood flood-opacity="0" result="BackgroundImageFix"/>
<feBlend mode="normal" in="SourceGraphic" in2="BackgroundImageFix" result="shape"/>
<feColorMatrix in="SourceAlpha" type="matrix" values="0 0 0 0 0 0 0 0 0 0 0 0 0 0 0 0 0 0 127 0" result="hardAlpha"/>
<feOffset dy="2"/>
<feGaussianBlur stdDeviation="0.5"/>
<feComposite in2="hardAlpha" operator="arithmetic" k2="-1" k3="1"/>
<feColorMatrix type="matrix" values="0 0 0 0 0 0 0 0 0 0 0 0 0 0 0 0 0 0 0.4 0"/>
<feBlend mode="normal" in2="shape" result="effect1_innerShadow_317_18"/>
</filter>
<filter id="filter2_i_317_18" x="49.1191" y="0.791016" width="22.2656" height="18.2559" filterUnits="userSpaceOnUse" color-interpolation-filters="sRGB">
<feFlood flood-opacity="0" result="BackgroundImageFix"/>
<feBlend mode="normal" in="SourceGraphic" in2="BackgroundImageFix" result="shape"/>
<feColorMatrix in="SourceAlpha" type="matrix" values="0 0 0 0 0 0 0 0 0 0 0 0 0 0 0 0 0 0 127 0" result="hardAlpha"/>
<feOffset dy="2"/>
<feGaussianBlur stdDeviation="0.5"/>
<feComposite in2="hardAlpha" operator="arithmetic" k2="-1" k3="1"/>
<feColorMatrix type="matrix" values="0 0 0 0 0 0 0 0 0 0 0 0 0 0 0 0 0 0 0.4 0"/>
<feBlend mode="normal" in2="shape" result="effect1_innerShadow_317_18"/>
</filter>
<filter id="filter3_i_317_18" x="24.3926" y="0.791016" width="22.1484" height="18.2852" filterUnits="userSpaceOnUse" color-interpolation-filters="sRGB">
<feFlood flood-opacity="0" result="BackgroundImageFix"/>
<feBlend mode="normal" in="SourceGraphic" in2="BackgroundImageFix" result="shape"/>
<feColorMatrix in="SourceAlpha" type="matrix" values="0 0 0 0 0 0 0 0 0 0 0 0 0 0 0 0 0 0 127 0" result="hardAlpha"/>
<feOffset dy="2"/>
<feGaussianBlur stdDeviation="0.5"/>
<feComposite in2="hardAlpha" operator="arithmetic" k2="-1" k3="1"/>
<feColorMatrix type="matrix" values="0 0 0 0 0 0 0 0 0 0 0 0 0 0 0 0 0 0 0.4 0"/>
<feBlend mode="normal" in2="shape" result="effect1_innerShadow_317_18"/>
</filter>
<filter id="filter4_i_317_18" x="0.984375" y="0.791016" width="20.6836" height="18.6953" filterUnits="userSpaceOnUse" color-interpolation-filters="sRGB">
<feFlood flood-opacity="0" result="BackgroundImageFix"/>
<feBlend mode="normal" in="SourceGraphic" in2="BackgroundImageFix" result="shape"/>
<feColorMatrix in="SourceAlpha" type="matrix" values="0 0 0 0 0 0 0 0 0 0 0 0 0 0 0 0 0 0 127 0" result="hardAlpha"/>
<feOffset dy="2"/>
<feGaussianBlur stdDeviation="0.5"/>
<feComposite in2="hardAlpha" operator="arithmetic" k2="-1" k3="1"/>
<feColorMatrix type="matrix" values="0 0 0 0 0 0 0 0 0 0 0 0 0 0 0 0 0 0 0.4 0"/>
<feBlend mode="normal" in2="shape" result="effect1_innerShadow_317_18"/>
</filter>
<filter id="filter5_i_317_18" x="181.836" y="1.5752" width="18.1797" height="16.3359" filterUnits="userSpaceOnUse" color-interpolation-filters="sRGB">
<feFlood flood-opacity="0" result="BackgroundImageFix"/>
<feBlend mode="normal" in="SourceGraphic" in2="BackgroundImageFix" result="shape"/>
<feColorMatrix in="SourceAlpha" type="matrix" values="0 0 0 0 0 0 0 0 0 0 0 0 0 0 0 0 0 0 127 0" result="hardAlpha"/>
<feOffset dy="2"/>
<feGaussianBlur stdDeviation="0.5"/>
<feComposite in2="hardAlpha" operator="arithmetic" k2="-1" k3="1"/>
<feColorMatrix type="matrix" values="0 0 0 0 0 0 0 0 0 0 0 0 0 0 0 0 0 0 0.4 0"/>
<feBlend mode="normal" in2="shape" result="effect1_innerShadow_317_18"/>
</filter>
<filter id="filter6_i_317_18" x="163.402" y="1.5752" width="16.6055" height="16.2852" filterUnits="userSpaceOnUse" color-interpolation-filters="sRGB">
<feFlood flood-opacity="0" result="BackgroundImageFix"/>
<feBlend mode="normal" in="SourceGraphic" in2="BackgroundImageFix" result="shape"/>
<feColorMatrix in="SourceAlpha" type="matrix" values="0 0 0 0 0 0 0 0 0 0 0 0 0 0 0 0 0 0 127 0" result="hardAlpha"/>
<feOffset dy="2"/>
<feGaussianBlur stdDeviation="0.5"/>
<feComposite in2="hardAlpha" operator="arithmetic" k2="-1" k3="1"/>
<feColorMatrix type="matrix" values="0 0 0 0 0 0 0 0 0 0 0 0 0 0 0 0 0 0 0.4 0"/>
<feBlend mode="normal" in2="shape" result="effect1_innerShadow_317_18"/>
</filter>
<filter id="filter7_i_317_18" x="141.363" y="1.5752" width="19.1953" height="15.9805" filterUnits="userSpaceOnUse" color-interpolation-filters="sRGB">
<feFlood flood-opacity="0" result="BackgroundImageFix"/>
<feBlend mode="normal" in="SourceGraphic" in2="BackgroundImageFix" result="shape"/>
<feColorMatrix in="SourceAlpha" type="matrix" values="0 0 0 0 0 0 0 0 0 0 0 0 0 0 0 0 0 0 127 0" result="hardAlpha"/>
<feOffset dy="2"/>
<feGaussianBlur stdDeviation="0.5"/>
<feComposite in2="hardAlpha" operator="arithmetic" k2="-1" k3="1"/>
<feColorMatrix type="matrix" values="0 0 0 0 0 0 0 0 0 0 0 0 0 0 0 0 0 0 0.4 0"/>
<feBlend mode="normal" in2="shape" result="effect1_innerShadow_317_18"/>
</filter>
<filter id="filter8_i_317_18" x="121.686" y="1.5752" width="17.2148" height="15.9297" filterUnits="userSpaceOnUse" color-interpolation-filters="sRGB">
<feFlood flood-opacity="0" result="BackgroundImageFix"/>
<feBlend mode="normal" in="SourceGraphic" in2="BackgroundImageFix" result="shape"/>
<feColorMatrix in="SourceAlpha" type="matrix" values="0 0 0 0 0 0 0 0 0 0 0 0 0 0 0 0 0 0 127 0" result="hardAlpha"/>
<feOffset dy="2"/>
<feGaussianBlur stdDeviation="0.5"/>
<feComposite in2="hardAlpha" operator="arithmetic" k2="-1" k3="1"/>
<feColorMatrix type="matrix" values="0 0 0 0 0 0 0 0 0 0 0 0 0 0 0 0 0 0 0.4 0"/>
<feBlend mode="normal" in2="shape" result="effect1_innerShadow_317_18"/>
</filter>
</defs>
</svg>
