<svg width="26" height="26" viewBox="0 0 26 26" fill="none" xmlns="http://www.w3.org/2000/svg">
<path d="M12.9848 16.7397L16.3618 20.5793C17.6118 22.0012 18.2379 22.7127 18.8931 22.5387C19.5473 22.3658 19.7723 21.4304 20.2212 19.5585L22.7108 9.17516C23.4035 6.29183 23.7493 4.85121 22.9806 4.13975C22.2118 3.42829 20.8795 3.95746 18.215 5.01475L5.85455 9.92412C3.7233 10.771 2.65767 11.1939 2.58996 11.921C2.58199 11.9951 2.58199 12.0698 2.58996 12.1439C2.65559 12.872 3.71913 13.2981 5.8483 14.1512C6.81184 14.5377 7.29413 14.7314 7.63996 15.1012C7.67885 15.1429 7.71635 15.1859 7.75246 15.2304C8.07121 15.6262 8.20663 16.147 8.47851 17.1845L8.98788 19.1293C9.25142 20.1397 9.38371 20.646 9.73059 20.7147C10.0775 20.7835 10.3785 20.3647 10.9816 19.5262L12.9848 16.7397ZM12.9848 16.7397L12.6545 16.396C12.2775 16.0022 12.0889 15.8064 12.0889 15.5627C12.0889 15.3189 12.2764 15.122 12.6545 14.7293L16.3764 10.8502" stroke="white" stroke-width="1.5" stroke-linecap="round" stroke-linejoin="round"/>
</svg>
