<svg width="22" height="21" viewBox="0 0 22 21" fill="none" xmlns="http://www.w3.org/2000/svg">
<path d="M10.9997 14.6527C12.1047 14.6527 13.1646 14.2137 13.946 13.4323C14.7274 12.6509 15.1663 11.5911 15.1663 10.486C15.1663 9.38093 14.7274 8.32113 13.946 7.53972C13.1646 6.75832 12.1047 6.31934 10.9997 6.31934C9.89461 6.31934 8.8348 6.75832 8.0534 7.53972C7.27199 8.32113 6.83301 9.38093 6.83301 10.486C6.83301 11.5911 7.27199 12.6509 8.0534 13.4323C8.8348 14.2137 9.89461 14.6527 10.9997 14.6527Z" stroke="white" stroke-width="1.5625" stroke-linecap="round" stroke-linejoin="round"/>
<path d="M1.625 14.653V6.31966C1.625 4.93833 2.17373 3.61357 3.15049 2.63681C4.12724 1.66006 5.452 1.11133 6.83333 1.11133H15.1667C16.548 1.11133 17.8728 1.66006 18.8495 2.63681C19.8263 3.61357 20.375 4.93833 20.375 6.31966V14.653C20.375 16.0343 19.8263 17.3591 18.8495 18.3358C17.8728 19.3126 16.548 19.8613 15.1667 19.8613H6.83333C5.452 19.8613 4.12724 19.3126 3.15049 18.3358C2.17373 17.3591 1.625 16.0343 1.625 14.653Z" stroke="white" stroke-width="1.5625"/>
<path d="M16.7295 4.76686L16.7395 4.75586" stroke="white" stroke-width="1.5625" stroke-linecap="round" stroke-linejoin="round"/>
</svg>
