<svg width="81" height="28" viewBox="0 0 81 28" fill="none" xmlns="http://www.w3.org/2000/svg">
<path d="M42.5303 28.0208L39.9651 21.8321L33.4708 6.25887L27.5481 20.1823L24.188 28.0208H20.8252L33.5426 -0.921387L45.9303 28.0208H42.5303Z" fill="#6B6E71"/>
<path d="M3.56769 12.2108V0.376953H0.5V27.9999H3.56769V16.0941L4.33595 15.3238L15.6258 27.9999H19.8658L6.49184 13.2369L19.4272 0.376953H15.2988L3.56769 12.2108Z" fill="#6B6E71"/>
<path d="M50.2103 3.23413H51.1247C54.8145 3.23413 58.14 3.6739 58.14 8.21819C58.14 12.504 54.6337 13.1649 51.1593 13.1649H50.2103V3.23413ZM50.2103 15.8729H50.9785L51.1035 15.2199H54.8676L54.3041 15.617C58.5414 15.2519 61.2104 12.2481 61.2104 7.99698C61.2104 1.76823 56.351 0.376953 51.1247 0.376953H47.1426V27.9999H50.2129V15.8729H50.2103Z" fill="#6B6E71"/>
<path d="M73.5235 3.23413H80.249V0.376953H63.8047V3.23413H70.4558V27.9999H73.5235V3.23413Z" fill="#6B6E71"/>
<path d="M29.417 17.1306C33.1094 14.628 37.8146 12.9675 43.0169 12.605C55.4445 11.7335 66.0911 18.5832 67.1491 27.997C63.151 19.8039 52.8261 14.1775 39.8668 15.0837C36.5386 15.3183 32.3332 16.1738 29.417 17.1306Z" fill="#38A628"/>
</svg>
