<svg width="100" height="37" viewBox="0 0 100 37" fill="none" xmlns="http://www.w3.org/2000/svg">
<g clip-path="url(#clip0_136_23)">
<mask id="mask0_136_23" style="mask-type:luminance" maskUnits="userSpaceOnUse" x="0" y="0" width="100" height="37">
<path d="M100 0.304688H0V36.3949H100V0.304688Z" fill="white"/>
</mask>
<g mask="url(#mask0_136_23)">
<path d="M69.3961 6.90605C69.6053 6.90504 69.8145 6.90401 70.0237 6.90291C70.4609 6.90108 70.8979 6.90047 71.3351 6.90067C71.8364 6.90086 72.3378 6.89758 72.8391 6.89268C73.3261 6.88811 73.813 6.88703 74.3001 6.88721C74.5051 6.88684 74.7101 6.88549 74.9152 6.88308C76.5396 6.86569 78.0294 7.01174 79.2545 8.52588C79.6001 8.99441 79.8567 9.46325 80.0457 10.0597C80.0756 10.1535 80.1058 10.2473 80.1368 10.344C80.3512 11.3602 80.3946 12.3602 80.3941 13.4084C80.3944 13.5487 80.3947 13.689 80.3951 13.8293C80.3957 14.1216 80.3957 14.4138 80.3952 14.7061C80.3949 15.0023 80.3954 15.2984 80.3969 15.5945C80.4205 20.3786 80.4205 20.3786 79.1703 22.0561C78.4076 22.9271 77.4239 23.4098 76.4078 23.4088C76.3525 23.409 76.2972 23.409 76.2403 23.4091C76.0557 23.4093 75.8711 23.4086 75.6865 23.4081C75.554 23.4081 75.4215 23.4081 75.2889 23.4081C74.9294 23.4083 74.5699 23.4076 74.2103 23.4069C73.8346 23.4063 73.4587 23.4061 73.0828 23.4061C72.3713 23.4058 71.6597 23.4049 70.9482 23.4039C70.1381 23.4027 69.3279 23.4021 68.5178 23.4015C66.8515 23.4005 65.185 23.3987 63.5187 23.3965C63.5187 22.2023 63.5187 21.0081 63.5187 19.7779C64.1081 19.7773 64.1081 19.7773 64.7096 19.7767C66.0063 19.7748 67.3029 19.7703 68.5996 19.7642C69.386 19.7606 70.1723 19.7581 70.9587 19.7578C71.6441 19.7574 72.3294 19.7553 73.0148 19.751C73.3778 19.7488 73.7406 19.7475 74.1036 19.7483C74.4452 19.7492 74.7867 19.7475 75.1284 19.744C75.2537 19.7431 75.3792 19.7431 75.5044 19.7441C75.6758 19.7453 75.8468 19.7434 76.0182 19.7406C76.114 19.7404 76.2098 19.7401 76.3085 19.7397C76.6368 19.6552 76.7575 19.4834 76.9671 19.1576C77.1229 18.6467 77.1361 18.0632 77.1735 17.5204C77.1803 17.4198 77.1874 17.3193 77.1946 17.2158C77.1996 17.1401 77.2048 17.0645 77.2101 16.9865C77.1586 16.9868 77.1068 16.9871 77.0537 16.9874C75.7931 16.9942 74.5324 16.9994 73.272 17.0026C72.6622 17.0042 72.0527 17.0064 71.443 17.0099C70.9111 17.013 70.3795 17.015 69.8477 17.0157C69.5664 17.0161 69.2854 17.017 69.0041 17.0193C68.689 17.0218 68.374 17.0219 68.0589 17.0217C67.9673 17.0228 67.8756 17.024 67.7812 17.0251C66.4944 17.0188 65.4205 16.5882 64.4909 15.4357C63.6835 14.1824 63.4138 12.9033 63.4996 11.3113C63.5453 10.7911 63.6783 10.3286 63.8428 9.85294C63.8642 9.77937 63.8859 9.70579 63.908 9.63C64.255 8.56679 65.0023 7.91852 65.7808 7.42056C66.9468 6.83864 68.1654 6.90743 69.3961 6.90605ZM66.7694 11.2099C66.6333 11.6538 66.6323 12.0704 66.6783 12.5409C66.773 12.8587 66.773 12.8587 66.9214 13.0579C66.9748 13.0579 67.0282 13.0579 67.0833 13.0579C67.0833 13.1261 67.0833 13.1943 67.0833 13.2646C67.324 13.367 67.4798 13.3808 67.7307 13.3805C67.8143 13.3806 67.8977 13.3807 67.9838 13.3809C68.0755 13.3805 68.1669 13.3801 68.2612 13.3798C68.3577 13.3798 68.4542 13.3798 68.5535 13.3798C68.818 13.3798 69.0823 13.3792 69.3468 13.3785C69.6232 13.3779 69.8996 13.3778 70.176 13.3777C70.6993 13.3774 71.2225 13.3765 71.746 13.3755C72.3416 13.3743 72.9374 13.3738 73.5333 13.3732C74.7589 13.3722 75.9845 13.3703 77.2101 13.368C77.2127 13.1186 77.2147 12.8692 77.2162 12.6197C77.2173 12.5142 77.2173 12.5142 77.2185 12.4066C77.221 11.8742 77.1926 11.54 76.9671 11.0935C76.6582 10.7283 76.4592 10.5642 76.0423 10.5614C75.9671 10.5607 75.8921 10.5599 75.8145 10.5592C75.6904 10.5588 75.6904 10.5588 75.5637 10.5583C75.4768 10.5577 75.3899 10.557 75.3003 10.5563C75.0116 10.5542 74.7229 10.553 74.4341 10.552C74.3356 10.5516 74.2371 10.5511 74.1358 10.5507C73.6147 10.5485 73.0936 10.5471 72.5725 10.5461C72.0338 10.545 71.4951 10.5414 70.9564 10.5373C70.5426 10.5346 70.1287 10.5337 69.715 10.5334C69.5163 10.5329 69.3178 10.5317 69.1192 10.5297C68.8413 10.5272 68.5634 10.5273 68.2855 10.528C68.2034 10.5267 68.1214 10.5254 68.0368 10.524C67.4619 10.5294 67.1587 10.6467 66.7694 11.2099Z" fill="white"/>
<path d="M88.0464 6.88259C88.1763 6.88251 88.3063 6.88229 88.4363 6.88195C88.7859 6.88141 89.1356 6.88281 89.4852 6.8846C89.8519 6.88617 90.2187 6.88603 90.5854 6.88612C91.2 6.88649 91.8144 6.88804 92.4289 6.89039C93.2186 6.89339 94.0082 6.89445 94.7979 6.89492C95.4772 6.89533 96.1564 6.89662 96.8356 6.89806C97.0541 6.89848 97.2725 6.89878 97.4909 6.89907C97.833 6.89958 98.175 6.90064 98.517 6.90212C98.6428 6.9026 98.7686 6.9029 98.8944 6.903C99.0655 6.90319 99.2363 6.90399 99.4073 6.90499C99.551 6.90544 99.5511 6.90545 99.6978 6.90592C99.9107 6.91954 99.9107 6.91954 99.9908 7.02321C99.9983 7.33246 100.001 7.63931 99.9998 7.94859C99.9998 8.04568 99.9998 8.14275 99.9998 8.24279C99.9998 8.56533 99.9991 8.88788 99.9985 9.21043C99.9983 9.43341 99.9983 9.6564 99.9981 9.87938C99.9978 10.4676 99.9971 11.0557 99.9961 11.6439C99.9954 12.2436 99.9949 12.8432 99.9946 13.4429C99.9938 14.6205 99.9924 15.798 99.9908 16.9756C98.2768 16.9805 96.5629 16.9841 94.849 16.9864C94.0532 16.9874 93.2572 16.9889 92.4614 16.9913C91.7675 16.9933 91.0735 16.9947 90.3795 16.9951C90.0124 16.9954 89.6452 16.996 89.278 16.9975C88.9318 16.999 88.5856 16.9994 88.2393 16.9991C88.1129 16.9991 87.9864 16.9995 87.8599 17.0003C86.4805 17.0086 85.1834 16.8229 84.1395 15.5246C83.6608 14.8105 83.3648 14.0579 83.2008 13.1398C83.1862 13.0739 83.1717 13.008 83.1567 12.9402C82.9671 11.8058 83.1509 10.4308 83.5668 9.40845C83.701 9.15058 83.8428 8.91653 84.0003 8.68194C84.0402 8.61646 84.0802 8.55097 84.1214 8.48352C85.0948 7.0366 86.6693 6.87124 88.0464 6.88259ZM86.3789 11.1247C86.1447 11.5474 86.1058 11.9002 86.1589 12.4141C86.3418 12.8797 86.5217 13.1141 86.8785 13.3471C87.0859 13.3924 87.0859 13.3924 87.306 13.3845C87.433 13.3852 87.433 13.3852 87.5624 13.3858C87.6546 13.3847 87.7465 13.3836 87.8413 13.3824C87.9876 13.3825 87.9876 13.3825 88.1368 13.3826C88.4036 13.3824 88.6703 13.3808 88.9372 13.3787C89.2162 13.3767 89.4953 13.3765 89.7742 13.3762C90.3023 13.3752 90.8304 13.3727 91.3584 13.3695C91.9598 13.3661 92.5611 13.3643 93.1624 13.3628C94.3991 13.3595 95.6358 13.3538 96.8725 13.3471C96.8725 12.4234 96.8725 11.4997 96.8725 10.548C95.5869 10.541 94.3011 10.5353 93.0154 10.5319C92.4184 10.5303 91.8214 10.5281 91.2244 10.5246C90.704 10.5215 90.1837 10.5195 89.6633 10.5188C89.3877 10.5183 89.1124 10.5174 88.8368 10.5151C88.5291 10.5126 88.2216 10.5126 87.9139 10.5127C87.8227 10.5116 87.7315 10.5105 87.6373 10.5093C87.5534 10.5098 87.4695 10.5102 87.3829 10.5106C87.2738 10.5102 87.2738 10.5102 87.1624 10.5097C86.8129 10.5753 86.6078 10.7864 86.3789 11.1247Z" fill="white"/>
<path d="M23.5571 6.88259C23.6871 6.88251 23.8171 6.88229 23.9471 6.88195C24.2966 6.88141 24.6464 6.88281 24.996 6.8846C25.3626 6.88617 25.7295 6.88603 26.0961 6.88612C26.7107 6.88649 27.3251 6.88804 27.9397 6.89039C28.7293 6.89339 29.5189 6.89445 30.3087 6.89492C30.9879 6.89533 31.6672 6.89662 32.3464 6.89806C32.5648 6.89848 32.7832 6.89878 33.0017 6.89907C33.3437 6.89958 33.6858 6.90064 34.0278 6.90212C34.1536 6.9026 34.2794 6.9029 34.4052 6.903C34.5762 6.90319 34.7471 6.90399 34.9181 6.90499C35.0618 6.90544 35.0618 6.90545 35.2085 6.90592C35.4214 6.91954 35.4214 6.91954 35.5015 7.02321C35.509 7.33246 35.5115 7.63931 35.5105 7.94859C35.5105 8.04568 35.5105 8.14275 35.5105 8.24279C35.5105 8.56533 35.5099 8.88788 35.5092 9.21043C35.509 9.43341 35.509 9.6564 35.5089 9.87938C35.5085 10.4676 35.5079 11.0557 35.5069 11.6439C35.5062 12.2436 35.5057 12.8432 35.5053 13.4429C35.5045 14.6205 35.5032 15.798 35.5015 16.9756C33.7876 16.9805 32.0737 16.9841 30.3598 16.9864C29.564 16.9874 28.768 16.9889 27.9722 16.9913C27.2782 16.9933 26.5842 16.9947 25.8903 16.9951C25.5231 16.9954 25.1559 16.996 24.7888 16.9975C24.4425 16.999 24.0963 16.9994 23.7501 16.9991C23.6236 16.9991 23.4971 16.9995 23.3707 17.0003C21.9913 17.0086 20.6941 16.8229 19.6502 15.5246C19.1715 14.8105 18.8755 14.0579 18.7115 13.1398C18.697 13.0739 18.6824 13.008 18.6675 12.9402C18.4779 11.8058 18.6616 10.4308 19.0775 9.40845C19.2117 9.15058 19.3536 8.91653 19.511 8.68194C19.5509 8.61646 19.5909 8.55097 19.6321 8.48352C20.6055 7.0366 22.1801 6.87124 23.5571 6.88259ZM21.8896 11.1247C21.6554 11.5474 21.6166 11.9002 21.6697 12.4141C21.8526 12.8797 22.0325 13.1141 22.3893 13.3471C22.5966 13.3924 22.5966 13.3924 22.8167 13.3845C22.9437 13.3852 22.9437 13.3852 23.0732 13.3858C23.1653 13.3847 23.2573 13.3836 23.3521 13.3824C23.4983 13.3825 23.4983 13.3825 23.6476 13.3826C23.9144 13.3824 24.1811 13.3808 24.4479 13.3787C24.727 13.3767 25.006 13.3765 25.2849 13.3762C25.8131 13.3752 26.3412 13.3727 26.8692 13.3695C27.4705 13.3661 28.0718 13.3643 28.6732 13.3628C29.9099 13.3595 31.1466 13.3538 32.3832 13.3471C32.3832 12.4234 32.3832 11.4997 32.3832 10.548C31.0976 10.541 29.8119 10.5353 28.5261 10.5319C27.9291 10.5303 27.3321 10.5281 26.7352 10.5246C26.2147 10.5215 25.6945 10.5195 25.174 10.5188C24.8985 10.5183 24.6231 10.5174 24.3476 10.5151C24.0399 10.5126 23.7323 10.5126 23.4246 10.5127C23.3335 10.5116 23.2422 10.5105 23.1481 10.5093C23.0641 10.5098 22.9802 10.5102 22.8936 10.5106C22.7846 10.5102 22.7846 10.5102 22.6732 10.5097C22.3236 10.5753 22.1186 10.7864 21.8896 11.1247Z" fill="white"/>
<path d="M49.0417 6.88197C49.1703 6.882 49.2989 6.88198 49.4274 6.88192C49.7747 6.88188 50.1219 6.88249 50.4691 6.88323C50.8328 6.88387 51.1963 6.88394 51.5599 6.88406C52.2475 6.88438 52.9353 6.88522 53.6229 6.88627C54.5527 6.88765 55.4825 6.88821 56.4123 6.88882C57.876 6.88979 59.3398 6.89187 60.8036 6.89376C60.8036 10.2166 60.8036 13.5395 60.8036 16.963C57.4979 16.9756 57.4979 16.9756 56.1085 16.9782C55.1505 16.9801 54.1926 16.9822 53.2348 16.9865C52.537 16.9896 51.8393 16.9916 51.1415 16.9923C50.7725 16.9927 50.4033 16.9937 50.0343 16.996C49.686 16.9981 49.3378 16.9987 48.9897 16.9982C48.8626 16.9983 48.7356 16.999 48.6087 17.0001C47.2438 17.0125 45.9748 16.7713 44.9378 15.5276C44.0482 14.2259 43.8266 12.9277 43.8983 11.2536C43.9683 10.0583 44.4587 8.94974 45.1331 8.13985C46.3207 6.98614 47.6118 6.87738 49.0417 6.88197ZM47.2926 10.9037C47.0591 11.2819 46.9187 11.5504 46.9472 12.0452C47.0123 12.4758 47.1371 12.7858 47.3597 13.1222C47.6118 13.3278 47.807 13.3555 48.1026 13.3548C48.1877 13.355 48.2728 13.3553 48.3604 13.3556C48.4999 13.3545 48.4999 13.3545 48.6422 13.3534C48.7403 13.3534 48.8385 13.3534 48.9396 13.3535C49.2087 13.3533 49.4775 13.3523 49.7463 13.3508C50.0276 13.3495 50.3088 13.3494 50.5899 13.3492C51.1222 13.3485 51.6546 13.3468 52.1867 13.3447C52.7927 13.3424 53.3989 13.3413 54.005 13.3402C55.2515 13.3381 56.4979 13.3343 57.7445 13.3298C57.7445 12.4049 57.7445 11.4799 57.7445 10.527C56.4604 10.5223 55.1763 10.5185 53.8924 10.5162C53.2961 10.5152 52.6999 10.5137 52.1036 10.5113C51.584 10.5093 51.0643 10.5079 50.5445 10.5075C50.2695 10.5072 49.9942 10.5066 49.7192 10.505C49.4118 10.5035 49.1046 10.5033 48.7974 10.5034C48.7063 10.5027 48.6152 10.5019 48.5212 10.5012C48.3954 10.5016 48.3954 10.5016 48.2671 10.502C48.1581 10.5017 48.1581 10.5017 48.047 10.5014C47.7468 10.539 47.5185 10.6452 47.2926 10.9037Z" fill="white"/>
<path d="M0 6.88184C1.01255 6.88184 2.02509 6.88184 3.06833 6.88184C3.16905 7.52987 3.2558 8.1239 3.29007 8.77408C3.29946 8.93075 3.30888 9.08742 3.31829 9.24409C3.33221 9.485 3.34588 9.72591 3.35916 9.96688C3.38077 11.6097 3.38077 11.6097 3.87611 13.0246C4.20668 13.2919 4.46389 13.2787 4.84678 13.274C4.95576 13.2751 4.95576 13.2751 5.06695 13.2762C5.30663 13.278 5.54625 13.2768 5.78593 13.2754C5.95275 13.2757 6.11957 13.2761 6.28638 13.2766C6.63581 13.2772 6.98521 13.2763 7.33464 13.2744C7.7824 13.272 8.23009 13.2733 8.67784 13.2758C9.02225 13.2773 9.36665 13.2769 9.71106 13.2758C9.87615 13.2755 10.0412 13.2758 10.2063 13.2768C10.4371 13.2779 10.6678 13.2763 10.8986 13.274C11.0008 13.2752 11.0008 13.2752 11.1051 13.2765C11.43 13.2705 11.589 13.2518 11.8694 13.021C12.4625 12.2271 12.3746 10.6479 12.4449 9.6094C12.4653 9.31889 12.4859 9.02841 12.5067 8.73795C12.5194 8.55826 12.5319 8.37855 12.5441 8.19879C12.5498 8.1169 12.5555 8.035 12.5613 7.95065C12.5662 7.87948 12.571 7.80831 12.576 7.735C12.6013 7.44918 12.6403 7.1656 12.6771 6.88184C13.6896 6.88184 14.7022 6.88184 15.7454 6.88184C15.7454 7.62707 15.7446 8.32948 15.6833 9.06307C15.6767 9.1455 15.6701 9.22792 15.6633 9.31285C15.6493 9.48522 15.6351 9.65755 15.6207 9.82985C15.5991 10.0887 15.5788 10.3476 15.5585 10.6067C15.402 12.548 15.1961 14.5939 13.9463 15.9075C13.0689 16.7491 12.0662 16.9934 10.9875 16.9894C10.874 16.9902 10.874 16.9902 10.7583 16.991C10.5109 16.9924 10.2634 16.9923 10.0159 16.9921C9.84218 16.9925 9.66844 16.9929 9.49469 16.9934C9.13139 16.9942 8.76809 16.9942 8.40477 16.9936C7.94164 16.993 7.47851 16.9948 7.01538 16.9972C6.65673 16.9987 6.29811 16.9988 5.93948 16.9985C5.76883 16.9985 5.59819 16.9991 5.42756 17.0001C3.94151 17.0082 2.69625 16.9237 1.56602 15.5565C0.681097 14.375 0.446655 13.068 0.307843 11.4797C0.294536 11.3359 0.281132 11.1921 0.267628 11.0483C0.242866 10.784 0.218777 10.5197 0.195181 10.2553C0.17225 10.0101 0.146584 9.76543 0.118516 9.52119C0.0853539 9.2109 0.0652608 8.90936 0.0551972 8.59671C0.0521201 8.50571 0.0490431 8.41469 0.0458729 8.32094C0.0423925 8.20822 0.0389121 8.0955 0.0353261 7.97935C0.0236685 7.61717 0.0120109 7.255 0 6.88184Z" fill="white"/>
<path d="M38.1914 0.304688C39.1864 0.304688 40.1814 0.304688 41.2065 0.304688C41.2065 5.81435 41.2065 11.324 41.2065 17.0006C40.2115 17.0006 39.2165 17.0006 38.1914 17.0006C38.1914 11.491 38.1914 5.98131 38.1914 0.304688Z" fill="white"/>
<path d="M30.5312 32.1569H33.0104V32.7515H30.5312V32.1569ZM30.5999 34.7083H29.9131V29.8682H33.3057V30.4697H30.5999V34.7083ZM36.2642 34.7636C35.6323 34.7636 35.1355 34.5815 34.7739 34.2174C34.4121 33.8533 34.2313 33.3209 34.2313 32.6201V29.8682H34.9181V32.5925C34.9181 33.1318 35.0349 33.5259 35.2684 33.7748C35.5064 34.0238 35.8406 34.1482 36.271 34.1482C36.7059 34.1482 37.0402 34.0238 37.2737 33.7748C37.5117 33.5259 37.6308 33.1318 37.6308 32.5925V29.8682H38.297V32.6201C38.297 33.3209 38.1161 33.8533 37.7545 34.2174C37.3973 34.5815 36.9005 34.7636 36.2642 34.7636ZM39.7049 34.7083V29.8682H41.5798C42.001 29.8682 42.3605 29.9349 42.658 30.0687C42.9556 30.2024 43.1846 30.396 43.3447 30.6495C43.505 30.903 43.5851 31.205 43.5851 31.5553C43.5851 31.9056 43.505 32.2076 43.3447 32.4611C43.1846 32.71 42.9556 32.9013 42.658 33.035C42.3605 33.1687 42.001 33.2355 41.5798 33.2355H40.0826L40.3916 32.9174V34.7083H39.7049ZM42.919 34.7083L41.6965 32.952H42.4313L43.6675 34.7083H42.919ZM40.3916 32.9866L40.0826 32.6478H41.5591C41.9987 32.6478 42.3307 32.5533 42.555 32.3643C42.7839 32.1707 42.8983 31.901 42.8983 31.5553C42.8983 31.2096 42.7839 30.9423 42.555 30.7532C42.3307 30.5642 41.9987 30.4697 41.5591 30.4697H40.0826L40.3916 30.124V32.9866ZM44.6947 34.7083V29.8682H45.2578L48.4375 33.844H48.1422V29.8682H48.829V34.7083H48.2659L45.0861 30.7325H45.3814V34.7083H44.6947ZM50.268 34.7083V29.8682H50.9548V34.7083H50.268ZM53.3486 34.7083V30.4697H51.7004V29.8682H55.6767V30.4697H54.0285V34.7083H53.3486ZM58.3292 34.7636C57.6973 34.7636 57.2007 34.5815 56.8389 34.2174C56.4772 33.8533 56.2963 33.3209 56.2963 32.6201V29.8682H56.9831V32.5925C56.9831 33.1318 57.0999 33.5259 57.3334 33.7748C57.5715 34.0238 57.9057 34.1482 58.336 34.1482C58.771 34.1482 59.1052 34.0238 59.3387 33.7748C59.5769 33.5259 59.6958 33.1318 59.6958 32.5925V29.8682H60.362V32.6201C60.362 33.3209 60.1813 33.8533 59.8195 34.2174C59.4623 34.5815 58.9657 34.7636 58.3292 34.7636ZM61.77 34.7083V29.8682H63.6449C64.0662 29.8682 64.4255 29.9349 64.7231 30.0687C65.0208 30.2024 65.2496 30.396 65.4099 30.6495C65.5702 30.903 65.6503 31.205 65.6503 31.5553C65.6503 31.9056 65.5702 32.2076 65.4099 32.4611C65.2496 32.71 65.0208 32.9013 64.7231 33.035C64.4255 33.1687 64.0662 33.2355 63.6449 33.2355H62.1478L62.4568 32.9174V34.7083H61.77ZM64.9841 34.7083L63.7617 32.952H64.4965L65.7327 34.7083H64.9841ZM62.4568 32.9866L62.1478 32.6478H63.6243C64.0638 32.6478 64.3958 32.5533 64.6201 32.3643C64.8491 32.1707 64.9635 31.901 64.9635 31.5553C64.9635 31.2096 64.8491 30.9423 64.6201 30.7532C64.3958 30.5642 64.0638 30.4697 63.6243 30.4697H62.1478L62.4568 30.124V32.9866ZM67.3848 31.9563H69.8571V32.5441H67.3848V31.9563ZM67.4466 34.1067H70.2486V34.7083H66.7598V29.8682H70.1525V30.4697H67.4466V34.1067Z" fill="white"/>
</g>
</g>
<defs>
<clipPath id="clip0_136_23">
<rect width="100" height="36.0902" fill="white" transform="translate(0 0.304688)"/>
</clipPath>
</defs>
</svg>
