<svg width="26" height="26" viewBox="0 0 26 26" fill="none" xmlns="http://www.w3.org/2000/svg">
<path d="M9.87467 11.1068C10.45 11.1068 10.9163 10.6404 10.9163 10.0651C10.9163 9.48981 10.45 9.02344 9.87467 9.02344C9.29938 9.02344 8.83301 9.48981 8.83301 10.0651C8.83301 10.6404 9.29938 11.1068 9.87467 11.1068Z" stroke="white" stroke-width="1.5" stroke-linecap="round" stroke-linejoin="round"/>
<path d="M16.1247 17.3568C16.7 17.3568 17.1663 16.8904 17.1663 16.3151C17.1663 15.7398 16.7 15.2734 16.1247 15.2734C15.5494 15.2734 15.083 15.7398 15.083 16.3151C15.083 16.8904 15.5494 17.3568 16.1247 17.3568Z" stroke="white" stroke-width="1.5" stroke-linecap="round" stroke-linejoin="round"/>
<path d="M8.83308 10.0649C8.83308 11.9988 9.60131 13.8534 10.9688 15.2209C12.3362 16.5883 14.1909 17.3566 16.1248 17.3566M6.74975 22.7732C9.12288 24.322 11.9857 24.9364 14.7854 24.4979C17.5851 24.0593 20.1229 22.5988 21.9087 20.3986C23.6946 18.1983 24.6018 15.4144 24.455 12.5844C24.3083 9.75436 23.1181 7.07911 21.1143 5.07532C19.1105 3.07152 16.4353 1.88133 13.6053 1.73462C10.7753 1.5879 7.99133 2.49508 5.79107 4.28093C3.59081 6.06678 2.13036 8.60461 1.6918 11.4043C1.25323 14.2039 1.86766 17.0668 3.41642 19.4399L2.58308 23.6066L6.74975 22.7732Z" stroke="white" stroke-width="1.5" stroke-linecap="round" stroke-linejoin="round"/>
</svg>
