<svg width="203" height="20" viewBox="0 0 203 20" fill="none" xmlns="http://www.w3.org/2000/svg">
<g filter="url(#filter0_i_212_491)">
<path d="M104.355 0.551758C105.371 0.551758 106.367 0.668945 107.344 0.90332C108.34 1.1377 109.287 1.48926 110.186 1.95801C111.084 2.40723 111.875 3.0127 112.559 3.77441C113.262 4.53613 113.643 5.44434 113.701 6.49902V7.72949V17.0752C113.584 18.2471 112.939 18.8818 111.768 18.9795C111.221 18.9795 110.742 18.8037 110.332 18.4521C109.941 18.0811 109.746 17.6221 109.746 17.0752V7.40723C109.707 6.80176 109.473 6.30371 109.043 5.91309C108.633 5.50293 108.164 5.18066 107.637 4.94629C107.129 4.71191 106.592 4.53613 106.025 4.41895C105.479 4.30176 104.922 4.24316 104.355 4.24316C103.789 4.24316 103.223 4.30176 102.656 4.41895C102.109 4.53613 101.572 4.71191 101.045 4.94629C100.537 5.18066 100.068 5.50293 99.6387 5.91309C99.2285 6.30371 99.0039 6.80176 98.9648 7.40723V17.0752C98.8672 18.2471 98.2324 18.8818 97.0605 18.9795C96.5137 18.9795 96.0352 18.8037 95.625 18.4521C95.2344 18.0811 95.0391 17.6221 95.0391 17.0752V7.72949V6.49902C95.0977 5.44434 95.4688 4.53613 96.1523 3.77441C96.8359 3.0127 97.627 2.40723 98.5254 1.95801C99.4238 1.48926 100.361 1.1377 101.338 0.90332C102.334 0.668945 103.34 0.551758 104.355 0.551758Z" fill="white"/>
</g>
<g filter="url(#filter1_i_212_491)">
<path d="M78.8672 1.34277H80.2148H90.1758C90.7227 1.3623 91.1719 1.56738 91.5234 1.95801C91.8945 2.34863 92.0801 2.81738 92.0801 3.36426C91.9824 4.53613 91.3477 5.1709 90.1758 5.26855H79.8633C79.1211 5.30762 78.5059 5.59082 78.0176 6.11816C77.5293 6.64551 77.168 7.25098 76.9336 7.93457C76.7188 8.59863 76.6113 9.28223 76.6113 9.98535C76.6113 10.6885 76.7188 11.3818 76.9336 12.0654C77.168 12.7295 77.5293 13.3252 78.0176 13.8525C78.5059 14.3799 79.1211 14.6631 79.8633 14.7021H90.1758C90.7227 14.7217 91.1719 14.9268 91.5234 15.3174C91.8945 15.708 92.0801 16.1768 92.0801 16.7236C92.0605 17.251 91.8652 17.7002 91.4941 18.0713C91.1426 18.4229 90.7031 18.6084 90.1758 18.6279H79.4238H78.8672C77.5 18.5498 76.3672 18.0322 75.4688 17.0752C74.5898 16.0986 73.9551 14.9951 73.5645 13.7646C73.1934 12.5342 73.0078 11.2744 73.0078 9.98535C73.0078 8.69629 73.2031 7.43652 73.5938 6.20605C73.9844 4.97559 74.6191 3.88184 75.498 2.9248C76.377 1.94824 77.5 1.4209 78.8672 1.34277ZM92.0215 9.86816C92.0215 10.415 91.8262 10.874 91.4355 11.2451C91.0645 11.6357 90.6055 11.8311 90.0586 11.8311H81.2109C80.6641 11.8311 80.1953 11.6455 79.8047 11.2744C79.4336 10.8838 79.248 10.415 79.248 9.86816C79.248 9.32129 79.4336 8.85254 79.8047 8.46191C80.1953 8.09082 80.6641 7.90527 81.2109 7.90527H90.0586C90.6055 7.90527 91.0645 8.10059 91.4355 8.49121C91.8262 8.8623 92.0215 9.32129 92.0215 9.86816Z" fill="white"/>
</g>
<g filter="url(#filter2_i_212_491)">
<path d="M56.8652 9.5752C56.3379 8.5791 55.6738 7.63184 54.873 6.7334C54.0723 5.83496 53.3008 5.34668 52.5586 5.26855H50.0977C49.5508 5.26855 49.0918 5.07324 48.7207 4.68262C48.3301 4.31152 48.1348 3.85254 48.1348 3.30566C48.1348 2.75879 48.3203 2.2998 48.6914 1.92871C49.082 1.53809 49.5508 1.34277 50.0977 1.34277H52.5586V1.37207H52.8516C54.2578 1.4502 55.7129 2.24121 57.2168 3.74512C57.959 4.50684 58.6426 5.36621 59.2676 6.32324C59.8926 5.36621 60.5859 4.50684 61.3477 3.74512C62.832 2.24121 64.2773 1.4502 65.6836 1.37207H65.9766V1.34277H68.4375C68.9844 1.34277 69.4434 1.53809 69.8145 1.92871C70.2051 2.2998 70.4004 2.75879 70.4004 3.30566C70.4004 3.85254 70.2051 4.31152 69.8145 4.68262C69.4434 5.07324 68.9844 5.26855 68.4375 5.26855H65.9766C65.2344 5.34668 64.4629 5.83496 63.6621 6.7334C62.8613 7.63184 62.1973 8.5791 61.6699 9.5752C61.5527 9.79004 61.4355 9.99512 61.3184 10.1904C61.3574 10.249 61.3965 10.3076 61.4355 10.3662C61.9629 11.3818 62.627 12.3389 63.4277 13.2373C64.2285 14.1357 65 14.6143 65.7422 14.6729H68.2031C68.75 14.6729 69.209 14.8682 69.5801 15.2588C69.9707 15.6299 70.166 16.0889 70.166 16.6357C70.166 17.1826 69.9707 17.6514 69.5801 18.042C69.209 18.4131 68.75 18.5986 68.2031 18.5986H65.4492C64.043 18.5205 62.5977 17.7393 61.1133 16.2549C60.4492 15.5713 59.834 14.8291 59.2676 14.0283C58.7012 14.8291 58.0859 15.5713 57.4219 16.2549C55.9375 17.7393 54.4922 18.5205 53.0859 18.5986H50.332C49.7852 18.5986 49.3164 18.4131 48.9258 18.042C48.5547 17.6514 48.3691 17.1826 48.3691 16.6357C48.3691 16.0889 48.5645 15.6299 48.9551 15.2588C49.3262 14.8682 49.7852 14.6729 50.332 14.6729H52.793C53.5352 14.6143 54.3066 14.1357 55.1074 13.2373C55.9082 12.3389 56.5723 11.3818 57.0996 10.3662C57.1387 10.3076 57.1777 10.249 57.2168 10.1904C57.0996 9.99512 56.9824 9.79004 56.8652 9.5752Z" fill="white"/>
</g>
<g filter="url(#filter3_i_212_491)">
<path d="M39.5801 1.34277C40.5762 1.3623 41.4648 1.6748 42.2461 2.28027C43.0273 2.88574 43.6523 3.6084 44.1211 4.44824C44.6094 5.28809 44.9707 6.17676 45.2051 7.11426C45.4395 8.05176 45.5566 9.00879 45.5566 9.98535C45.5566 11.2744 45.3516 12.5439 44.9414 13.7939C44.5508 15.0244 43.8965 16.1182 42.9785 17.0752C42.0801 18.0322 40.9473 18.5498 39.5801 18.6279H29.3555C27.9883 18.5693 26.8457 18.0615 25.9277 17.1045C25.0098 16.1475 24.3555 15.0439 23.9648 13.7939C23.5938 12.5439 23.4082 11.2744 23.4082 9.98535C23.4082 8.69629 23.6035 7.43652 23.9941 6.20605C24.3848 4.95605 25.0293 3.85254 25.9277 2.89551C26.8457 1.91895 27.9883 1.40137 29.3555 1.34277H29.9121H39.0234H39.5801ZM38.584 14.7021C39.3262 14.6631 39.9414 14.3896 40.4297 13.8818C40.9375 13.3545 41.2988 12.749 41.5137 12.0654C41.7285 11.3818 41.8359 10.6885 41.8359 9.98535C41.8359 9.28223 41.7188 8.59863 41.4844 7.93457C41.2695 7.25098 40.918 6.64551 40.4297 6.11816C39.9414 5.59082 39.3262 5.30762 38.584 5.26855H30.2637C29.5215 5.30762 28.9062 5.59082 28.418 6.11816C27.9297 6.64551 27.5684 7.25098 27.334 7.93457C27.1191 8.59863 27.0117 9.28223 27.0117 9.98535C27.0117 10.6885 27.1191 11.3818 27.334 12.0654C27.5488 12.749 27.9004 13.3545 28.3887 13.8818C28.8965 14.3896 29.5215 14.6631 30.2637 14.7021H38.584Z" fill="white"/>
</g>
<g filter="url(#filter4_i_212_491)">
<path d="M3.95508 17.1338C3.83789 18.3057 3.19336 18.9404 2.02148 19.0381C1.47461 19.0381 0.996094 18.8623 0.585938 18.5107C0.195312 18.1396 0 17.6807 0 17.1338V3.24707C0.0195312 2.7002 0.224609 2.25098 0.615234 1.89941C1.00586 1.52832 1.47461 1.34277 2.02148 1.34277H3.45703H7.06055H14.2969C14.4141 1.34277 14.5312 1.35254 14.6484 1.37207H14.8242C16.1914 1.41113 17.3145 1.72363 18.1934 2.30957C19.0723 2.89551 19.707 3.56934 20.0977 4.33105C20.4883 5.07324 20.6836 5.8252 20.6836 6.58691C20.6836 7.36816 20.4883 8.13965 20.0977 8.90137C19.7266 9.64355 19.0918 10.3076 18.1934 10.8936C17.3145 11.4795 16.1914 11.792 14.8242 11.8311H9.66797C9.82422 12.8076 10.1465 13.5303 10.6348 13.999C11.1035 14.4678 11.6992 14.7021 12.4219 14.7021H18.75C19.2969 14.7217 19.7461 14.9268 20.0977 15.3174C20.4688 15.708 20.6543 16.1768 20.6543 16.7236C20.6348 17.251 20.4395 17.7002 20.0684 18.0713C19.7168 18.4229 19.2773 18.6084 18.75 18.6279H11.8945C10.4492 18.6475 9.14062 18.0811 7.96875 16.9287C6.79688 15.7764 6.08398 14.4092 5.83008 12.8271C5.47852 11.0693 5.30273 10.083 5.30273 9.86816C5.30273 9.32129 5.48828 8.8623 5.85938 8.49121C6.25 8.10059 6.71875 7.90527 7.26562 7.90527H15C15.3711 7.88574 15.6738 7.80762 15.9082 7.6709C16.1621 7.51465 16.3477 7.34863 16.4648 7.17285C16.582 6.97754 16.6406 6.78223 16.6406 6.58691C16.6406 6.3916 16.582 6.20605 16.4648 6.03027C16.3477 5.83496 16.1621 5.66895 15.9082 5.53223C15.6738 5.37598 15.3711 5.28809 15 5.26855H7.06055H4.7168C4.20898 5.28809 3.95508 5.54199 3.95508 6.03027V17.1338Z" fill="white"/>
</g>
<g filter="url(#filter5_i_212_491)">
<path d="M180.852 3.82812C180.852 3.35417 181.012 2.95638 181.334 2.63477C181.673 2.29622 182.079 2.12695 182.553 2.12695H197.33C197.804 2.12695 198.21 2.28776 198.549 2.60938C198.87 2.94792 199.031 3.35417 199.031 3.82812C199.031 4.30208 198.862 4.70833 198.523 5.04688C198.202 5.36849 197.804 5.5293 197.33 5.5293H191.668V15.8125C191.566 16.8281 191.008 17.3783 189.992 17.4629C189.518 17.4629 189.104 17.3105 188.748 17.0059C188.41 16.6842 188.24 16.2865 188.24 15.8125V5.5293H182.553C182.079 5.5293 181.681 5.36003 181.359 5.02148C181.021 4.69987 180.852 4.30208 180.852 3.82812Z" fill="#A59B9B"/>
</g>
<g filter="url(#filter6_i_212_491)">
<path d="M164.094 17.4121C163.637 17.3952 163.247 17.2344 162.926 16.9297C162.604 16.6081 162.435 16.2188 162.418 15.7617V9.43945C162.435 8.23763 162.604 7.10352 162.926 6.03711C163.264 4.9707 163.814 4.07357 164.576 3.3457C165.355 2.60091 166.337 2.19466 167.521 2.12695H177.322C177.779 2.14388 178.16 2.31315 178.465 2.63477C178.786 2.93945 178.956 3.32031 178.973 3.77734C178.973 4.2513 178.812 4.65755 178.49 4.99609C178.186 5.33464 177.796 5.51237 177.322 5.5293H168.385C167.742 5.56315 167.208 5.80859 166.785 6.26562C166.362 6.72266 166.091 7.2474 165.973 7.83984C165.871 8.41536 165.829 9.05013 165.846 9.74414V15.7617C165.829 16.2357 165.651 16.6335 165.312 16.9551C164.974 17.2598 164.568 17.4121 164.094 17.4121ZM167.039 10.7344C167.039 10.2604 167.208 9.86263 167.547 9.54102C167.868 9.20247 168.266 9.0332 168.74 9.0332H177.322C177.796 9.0332 178.194 9.20247 178.516 9.54102C178.854 9.86263 179.023 10.2604 179.023 10.7344C179.023 11.2083 178.863 11.6146 178.541 11.9531C178.202 12.2747 177.796 12.4355 177.322 12.4355H168.74C168.266 12.4355 167.86 12.2747 167.521 11.9531C167.2 11.6146 167.039 11.2083 167.039 10.7344Z" fill="#A59B9B"/>
</g>
<g filter="url(#filter7_i_212_491)">
<path d="M154.395 2.12695C155.258 2.14388 156.028 2.41471 156.705 2.93945C157.382 3.46419 157.924 4.09049 158.33 4.81836C158.753 5.54622 159.066 6.31641 159.27 7.12891C159.473 7.94141 159.574 8.77083 159.574 9.61719C159.574 10.7344 159.396 11.8346 159.041 12.918C158.702 13.9844 158.135 14.9323 157.34 15.7617C156.561 16.5911 155.579 17.0397 154.395 17.1074H145.533C144.348 17.0566 143.358 16.6165 142.562 15.7871C141.767 14.9577 141.2 14.0013 140.861 12.918C140.54 11.8346 140.379 10.7344 140.379 9.61719C140.379 8.5 140.548 7.4082 140.887 6.3418C141.225 5.25846 141.784 4.30208 142.562 3.47266C143.358 2.6263 144.348 2.17773 145.533 2.12695H146.016H153.912H154.395ZM153.531 13.7051C154.174 13.6712 154.708 13.4342 155.131 12.9941C155.571 12.5371 155.884 12.0124 156.07 11.4199C156.257 10.8275 156.35 10.2266 156.35 9.61719C156.35 9.00781 156.248 8.41536 156.045 7.83984C155.859 7.2474 155.554 6.72266 155.131 6.26562C154.708 5.80859 154.174 5.56315 153.531 5.5293H146.32C145.677 5.56315 145.144 5.80859 144.721 6.26562C144.298 6.72266 143.984 7.2474 143.781 7.83984C143.595 8.41536 143.502 9.00781 143.502 9.61719C143.502 10.2266 143.595 10.8275 143.781 11.4199C143.967 12.0124 144.272 12.5371 144.695 12.9941C145.135 13.4342 145.677 13.6712 146.32 13.7051H153.531Z" fill="#A59B9B"/>
</g>
<g filter="url(#filter8_i_212_491)">
<path d="M137.484 3.82812C137.484 4.30208 137.315 4.69987 136.977 5.02148C136.655 5.36003 136.257 5.5293 135.783 5.5293H125.627C125.305 5.54622 125.035 5.6224 124.814 5.75781C124.611 5.8763 124.459 6.02018 124.357 6.18945C124.256 6.3418 124.205 6.5026 124.205 6.67188C124.205 6.84115 124.256 7.01042 124.357 7.17969C124.459 7.33203 124.611 7.47591 124.814 7.61133C125.035 7.72982 125.305 7.79753 125.627 7.81445H132.838C134.023 7.84831 134.996 8.1276 135.758 8.65234C136.536 9.16016 137.087 9.7526 137.408 10.4297C137.747 11.0898 137.916 11.7669 137.916 12.4609C137.916 13.138 137.747 13.8151 137.408 14.4922C137.07 15.1523 136.52 15.7448 135.758 16.2695C134.996 16.7773 134.023 17.0312 132.838 17.0312H132.686C132.584 17.0482 132.482 17.0566 132.381 17.0566H122.783C122.309 17.0566 121.903 16.8958 121.564 16.5742C121.243 16.2357 121.082 15.8294 121.082 15.3555C121.082 14.8815 121.251 14.4837 121.59 14.1621C121.911 13.8236 122.309 13.6543 122.783 13.6543H132.99C133.312 13.6712 133.574 13.612 133.777 13.4766C133.997 13.3411 134.158 13.1888 134.26 13.0195C134.361 12.8333 134.412 12.6471 134.412 12.4609C134.412 12.3424 134.361 12.1816 134.26 11.9785C134.158 11.7585 133.997 11.5807 133.777 11.4453C133.574 11.3099 133.312 11.2337 132.99 11.2168H125.779C124.594 11.1829 123.613 10.9121 122.834 10.4043C122.072 9.89648 121.522 9.32096 121.184 8.67773C120.862 8.01758 120.701 7.34896 120.701 6.67188C120.701 6.01172 120.87 5.36003 121.209 4.7168C121.548 4.05664 122.098 3.47266 122.859 2.96484C123.621 2.45703 124.594 2.1862 125.779 2.15234H125.932C126.033 2.13542 126.135 2.12695 126.236 2.12695H135.783C136.257 2.12695 136.655 2.29622 136.977 2.63477C137.315 2.95638 137.484 3.35417 137.484 3.82812Z" fill="#A59B9B"/>
</g>
<defs>
<filter id="filter0_i_212_491" x="95.0391" y="0.551758" width="18.6621" height="19.4277" filterUnits="userSpaceOnUse" color-interpolation-filters="sRGB">
<feFlood flood-opacity="0" result="BackgroundImageFix"/>
<feBlend mode="normal" in="SourceGraphic" in2="BackgroundImageFix" result="shape"/>
<feColorMatrix in="SourceAlpha" type="matrix" values="0 0 0 0 0 0 0 0 0 0 0 0 0 0 0 0 0 0 127 0" result="hardAlpha"/>
<feOffset dy="2"/>
<feGaussianBlur stdDeviation="0.5"/>
<feComposite in2="hardAlpha" operator="arithmetic" k2="-1" k3="1"/>
<feColorMatrix type="matrix" values="0 0 0 0 0 0 0 0 0 0 0 0 0 0 0 0 0 0 0.4 0"/>
<feBlend mode="normal" in2="shape" result="effect1_innerShadow_212_491"/>
</filter>
<filter id="filter1_i_212_491" x="73.0078" y="1.34277" width="19.0723" height="18.2852" filterUnits="userSpaceOnUse" color-interpolation-filters="sRGB">
<feFlood flood-opacity="0" result="BackgroundImageFix"/>
<feBlend mode="normal" in="SourceGraphic" in2="BackgroundImageFix" result="shape"/>
<feColorMatrix in="SourceAlpha" type="matrix" values="0 0 0 0 0 0 0 0 0 0 0 0 0 0 0 0 0 0 127 0" result="hardAlpha"/>
<feOffset dy="2"/>
<feGaussianBlur stdDeviation="0.5"/>
<feComposite in2="hardAlpha" operator="arithmetic" k2="-1" k3="1"/>
<feColorMatrix type="matrix" values="0 0 0 0 0 0 0 0 0 0 0 0 0 0 0 0 0 0 0.4 0"/>
<feBlend mode="normal" in2="shape" result="effect1_innerShadow_212_491"/>
</filter>
<filter id="filter2_i_212_491" x="48.1348" y="1.34277" width="22.2656" height="18.2559" filterUnits="userSpaceOnUse" color-interpolation-filters="sRGB">
<feFlood flood-opacity="0" result="BackgroundImageFix"/>
<feBlend mode="normal" in="SourceGraphic" in2="BackgroundImageFix" result="shape"/>
<feColorMatrix in="SourceAlpha" type="matrix" values="0 0 0 0 0 0 0 0 0 0 0 0 0 0 0 0 0 0 127 0" result="hardAlpha"/>
<feOffset dy="2"/>
<feGaussianBlur stdDeviation="0.5"/>
<feComposite in2="hardAlpha" operator="arithmetic" k2="-1" k3="1"/>
<feColorMatrix type="matrix" values="0 0 0 0 0 0 0 0 0 0 0 0 0 0 0 0 0 0 0.4 0"/>
<feBlend mode="normal" in2="shape" result="effect1_innerShadow_212_491"/>
</filter>
<filter id="filter3_i_212_491" x="23.4082" y="1.34277" width="22.1484" height="18.2852" filterUnits="userSpaceOnUse" color-interpolation-filters="sRGB">
<feFlood flood-opacity="0" result="BackgroundImageFix"/>
<feBlend mode="normal" in="SourceGraphic" in2="BackgroundImageFix" result="shape"/>
<feColorMatrix in="SourceAlpha" type="matrix" values="0 0 0 0 0 0 0 0 0 0 0 0 0 0 0 0 0 0 127 0" result="hardAlpha"/>
<feOffset dy="2"/>
<feGaussianBlur stdDeviation="0.5"/>
<feComposite in2="hardAlpha" operator="arithmetic" k2="-1" k3="1"/>
<feColorMatrix type="matrix" values="0 0 0 0 0 0 0 0 0 0 0 0 0 0 0 0 0 0 0.4 0"/>
<feBlend mode="normal" in2="shape" result="effect1_innerShadow_212_491"/>
</filter>
<filter id="filter4_i_212_491" x="0" y="1.34277" width="20.6836" height="18.6953" filterUnits="userSpaceOnUse" color-interpolation-filters="sRGB">
<feFlood flood-opacity="0" result="BackgroundImageFix"/>
<feBlend mode="normal" in="SourceGraphic" in2="BackgroundImageFix" result="shape"/>
<feColorMatrix in="SourceAlpha" type="matrix" values="0 0 0 0 0 0 0 0 0 0 0 0 0 0 0 0 0 0 127 0" result="hardAlpha"/>
<feOffset dy="2"/>
<feGaussianBlur stdDeviation="0.5"/>
<feComposite in2="hardAlpha" operator="arithmetic" k2="-1" k3="1"/>
<feColorMatrix type="matrix" values="0 0 0 0 0 0 0 0 0 0 0 0 0 0 0 0 0 0 0.4 0"/>
<feBlend mode="normal" in2="shape" result="effect1_innerShadow_212_491"/>
</filter>
<filter id="filter5_i_212_491" x="180.852" y="2.12695" width="18.1797" height="16.3359" filterUnits="userSpaceOnUse" color-interpolation-filters="sRGB">
<feFlood flood-opacity="0" result="BackgroundImageFix"/>
<feBlend mode="normal" in="SourceGraphic" in2="BackgroundImageFix" result="shape"/>
<feColorMatrix in="SourceAlpha" type="matrix" values="0 0 0 0 0 0 0 0 0 0 0 0 0 0 0 0 0 0 127 0" result="hardAlpha"/>
<feOffset dy="2"/>
<feGaussianBlur stdDeviation="0.5"/>
<feComposite in2="hardAlpha" operator="arithmetic" k2="-1" k3="1"/>
<feColorMatrix type="matrix" values="0 0 0 0 0 0 0 0 0 0 0 0 0 0 0 0 0 0 0.4 0"/>
<feBlend mode="normal" in2="shape" result="effect1_innerShadow_212_491"/>
</filter>
<filter id="filter6_i_212_491" x="162.418" y="2.12695" width="16.6055" height="16.2852" filterUnits="userSpaceOnUse" color-interpolation-filters="sRGB">
<feFlood flood-opacity="0" result="BackgroundImageFix"/>
<feBlend mode="normal" in="SourceGraphic" in2="BackgroundImageFix" result="shape"/>
<feColorMatrix in="SourceAlpha" type="matrix" values="0 0 0 0 0 0 0 0 0 0 0 0 0 0 0 0 0 0 127 0" result="hardAlpha"/>
<feOffset dy="2"/>
<feGaussianBlur stdDeviation="0.5"/>
<feComposite in2="hardAlpha" operator="arithmetic" k2="-1" k3="1"/>
<feColorMatrix type="matrix" values="0 0 0 0 0 0 0 0 0 0 0 0 0 0 0 0 0 0 0.4 0"/>
<feBlend mode="normal" in2="shape" result="effect1_innerShadow_212_491"/>
</filter>
<filter id="filter7_i_212_491" x="140.379" y="2.12695" width="19.1953" height="15.9805" filterUnits="userSpaceOnUse" color-interpolation-filters="sRGB">
<feFlood flood-opacity="0" result="BackgroundImageFix"/>
<feBlend mode="normal" in="SourceGraphic" in2="BackgroundImageFix" result="shape"/>
<feColorMatrix in="SourceAlpha" type="matrix" values="0 0 0 0 0 0 0 0 0 0 0 0 0 0 0 0 0 0 127 0" result="hardAlpha"/>
<feOffset dy="2"/>
<feGaussianBlur stdDeviation="0.5"/>
<feComposite in2="hardAlpha" operator="arithmetic" k2="-1" k3="1"/>
<feColorMatrix type="matrix" values="0 0 0 0 0 0 0 0 0 0 0 0 0 0 0 0 0 0 0.4 0"/>
<feBlend mode="normal" in2="shape" result="effect1_innerShadow_212_491"/>
</filter>
<filter id="filter8_i_212_491" x="120.701" y="2.12695" width="17.2148" height="15.9297" filterUnits="userSpaceOnUse" color-interpolation-filters="sRGB">
<feFlood flood-opacity="0" result="BackgroundImageFix"/>
<feBlend mode="normal" in="SourceGraphic" in2="BackgroundImageFix" result="shape"/>
<feColorMatrix in="SourceAlpha" type="matrix" values="0 0 0 0 0 0 0 0 0 0 0 0 0 0 0 0 0 0 127 0" result="hardAlpha"/>
<feOffset dy="2"/>
<feGaussianBlur stdDeviation="0.5"/>
<feComposite in2="hardAlpha" operator="arithmetic" k2="-1" k3="1"/>
<feColorMatrix type="matrix" values="0 0 0 0 0 0 0 0 0 0 0 0 0 0 0 0 0 0 0.4 0"/>
<feBlend mode="normal" in2="shape" result="effect1_innerShadow_212_491"/>
</filter>
</defs>
</svg>
